<?xml version="1.0" encoding="UTF-8" standalone="no"?>
<!DOCTYPE svg PUBLIC "-//W3C//DTD SVG 1.1//EN" "http://www.w3.org/Graphics/SVG/1.1/DTD/svg11.dtd">
<svg width="1200" height="500" viewBox="0 0 1200 500" xmlns="http://www.w3.org/2000/svg" version="1.1">
  <desc>Subfields of Theoretical Computer Science</desc>
  
  <style Type="text/css"><![CDATA[
    text {
      font-family: sans-serif;
      font-size: 16px;
      text-anchor: middle;
    }
    path {
      stroke: currentColor;
      fill: none;
      stroke-linecap: round;
      stroke-width: 1px;
    }
  ]]></style>
  
  <g transform="translate(200, 30)"><text y="0.5ex" style="font-size: 24px;">Computability theory</text></g>
  
  <g transform="translate(100, 120)"><text y="0.5ex">Number functions</text></g>
  <path d="M200,45 c0,30 -100,30 -100,60"/>
  <path d="M100,135 q100,15 200,0"/>
  <path d="M100,135 c0,30 -50,30 -50,60"/>
  <path d="M100,135 c0,30 120,30 120,60"/>
  <path d="M100,135 c0,40 30,40 30,80"/>
  
  <g transform="translate(300, 120)"><text y="0.5ex">Word functions</text></g>
  <path d="M200,45 c0,30 100,30 100,60"/>
  
  <g transform="translate(200, 150)"><text y="0.5ex" style="font-size: 12px;">simulation</text></g>
  
  <g transform="translate(50, 210)"><text y="0.5ex">µ-Recursion</text></g>
  
  <g transform="translate(220, 210)"><text y="0.5ex">WHILE-computable</text></g>
  
  <g transform="translate(130, 230)"><text y="0.5ex">Register machine</text></g>
  
  <g transform="translate(400, 230)"><text y="0.5ex">Turing machine</text></g>
  <path d="M300,135 c0,40 100,40 100,80"/>
  <path d="M600,45 c0,85 -200,85 -200,170"/>
  <path d="M150,295 c0,-25 250,-25 250,-50"/>
  <path d="M400,245 c0,60 -150,60 -150,120"/>
  <path d="M510,245 c0,-5 -20,-15 -40,-15"/>
  <path d="M510,215 c0,5 -20,15 -40,15"/>
  
  <g transform="translate(150, 310)"><text y="0.5ex">Church-Turing thesis</text></g>
  <path d="M150,295 c0,-35 -100,-35 -100,-70"/>
  <path d="M150,295 c0,-25 -20,-25 -20,-50"/>
  <path d="M150,295 c0,-35 70,-35 70,-70"/>
  
  <g transform="translate(600, 30)"><text y="0.5ex" style="font-size: 24px;">Computational complexity theory</text></g>
  
  <g transform="translate(680, 230)"><text y="0.5ex">Complexity classes</text></g>
  <path d="M600,45 c0,85 80,85 80,170"/>
  <path d="M550,215 c0,5 20,15 40,15"/>
  <path d="M550,245 c0,-5 20,-15 40,-15"/>
  <path d="M680,245 c0,15 -50,15 -50,30"/>
  <path d="M680,245 c0,15 10,15 10,30"/>
  <path d="M680,245 c0,20 80,20 80,40 l0,60 c0,35 -260,35 -260,70"/>
  
  <g transform="translate(540, 200)"><text y="0.5ex">deterministic</text></g>
  <g transform="translate(540, 260)"><text y="0.5ex">nondeterministic</text></g>
  <g transform="translate(630, 290)"><text y="0.5ex">time</text></g>
  <g transform="translate(690, 290)"><text y="0.5ex">space</text></g>
  
  <g transform="translate(550, 350)"><text y="0.5ex">P ⊆ NP ⊆ PSPACE = NPSPACE ⊆ EXPTIME</text></g>
  <path d="M630,305 c0,15 -80,15 -80,30"/>
  <path d="M690,305 c0,15 -140,15 -140,30"/>
  
  <g transform="translate(1000, 30)"><text y="0.5ex" style="font-size: 24px;">Formal languages</text></g>
  <path d="M1000,45 c0,30 -210,30 -210,60 l0,250 c0,30 -290,30 -290,60"/>
  <path d="M1000,45 c0,30 -100,30 -100,60"/>
  <path d="M1000,45 c0,30 100,30 100,60"/>
  
  <g transform="translate(900, 120)"><text y="0.5ex">Generator</text></g>
  <path d="M900,135 l0,60"/>
  
  <g transform="translate(1100, 120)"><text y="0.5ex">Acceptor</text></g>
  <path d="M1100,135 l0,60"/>
  
  <g transform="translate(900, 210)"><text y="0.5ex">Formal grammars</text></g>
  <path d="M900,225 c0,30 -50,30 -50,60"/>
  
  <g transform="translate(1100, 210)"><text y="0.5ex">Automaton</text></g>
  <path d="M1100,225 l0,60"/>
  
  <g transform="translate(850, 300)"><text y="0.5ex">Type 0</text></g>
  <path d="M850,315 l0,30"/>
  <path d="M880,300 l150,0"/>
  
  <g transform="translate(955, 290)"><text y="0.5ex" style="font-size: 12px;">Recursively enumerable</text></g>
  <g transform="translate(955, 310)"><text y="0.5ex" style="font-size: 12px;">languages</text></g>
  
  <g transform="translate(1100, 300)"><text y="0.5ex">Turing machine</text></g>
  <path d="M1100,315 l0,20"/>
  
  <g transform="translate(850, 360)"><text y="0.5ex">Type 1</text></g>
  <path d="M850,375 l0,30"/>
  <path d="M880,360 l150,0"/>
  
  <g transform="translate(955, 350)"><text y="0.5ex" style="font-size: 12px;">Context-sensitive</text></g>
  <g transform="translate(955, 370)"><text y="0.5ex" style="font-size: 12px;">languages</text></g>
  
  <g transform="translate(1100, 350)"><text y="0.5ex">Linear-bounded</text></g>
  <g transform="translate(1100, 370)"><text y="0.5ex">automata</text></g>
  <path d="M1100,385 l0,10"/>
  
  <g transform="translate(850, 420)"><text y="0.5ex">Type 2</text></g>
  <path d="M850,435 l0,30"/>
  <path d="M880,420 l150,0"/>
  
  <g transform="translate(955, 410)"><text y="0.5ex" style="font-size: 12px;">Context-free languages</text></g>
  
  <g transform="translate(1110, 410)"><text y="0.5ex">Non-deterministic</text></g>
  <g transform="translate(1110, 430)"><text y="0.5ex">Pushdown automata</text></g>
  <path d="M1100,445 l0,20"/>
  
  <g transform="translate(850, 480)"><text y="0.5ex">Type 3</text></g>
  <path d="M880,480 l150,0"/>
  
  <g transform="translate(955, 470)"><text y="0.5ex" style="font-size: 12px;">Regular languages</text></g>
  
  <g transform="translate(1110, 480)"><text y="0.5ex">Finite state machines</text></g>
  
  <g transform="translate(750, 400)"><text y="0.5ex">Chomsky</text></g>
  <g transform="translate(750, 420)"><text y="0.5ex">Hierarchy</text></g>
  <path d="M795,410 c12.5,0 12.5,-110 25,-110"/>
  <path d="M795,410 c12.5,0 12.5,-50 25,-50"/>
  <path d="M795,410 c12.5,0 12.5,10 25,10"/>
  <path d="M795,410 c12.5,0 12.5,70 25,70"/>
  
  <g transform="translate(250, 380)"><text y="0.5ex">Undecidability of the Halting problem</text></g>
  
  <g transform="translate(500, 430)"><text y="0.5ex">Problems/Sets</text></g>
  <path d="M250,395 c0,10 250,10 250,20"/>
  <path d="M500,445 c0,10 -100,10 -100,20"/>
  <path d="M500,445 c0,10 100,10 100,20"/>
  
  <g transform="translate(400, 480)"><text y="0.5ex">Recursive</text></g>
  <g transform="translate(600, 480)"><text y="0.5ex">Recursively enumerable</text></g>
</svg>