<?xml version="1.0" encoding="UTF-8" standalone="no"?>
<!-- Created with Inkscape (http://www.inkscape.org/) -->

<svg
   xmlns:dc="http://purl.org/dc/elements/1.1/"
   xmlns:cc="http://creativecommons.org/ns#"
   xmlns:rdf="http://www.w3.org/1999/02/22-rdf-syntax-ns#"
   xmlns:svg="http://www.w3.org/2000/svg"
   xmlns="http://www.w3.org/2000/svg"
   xmlns:sodipodi="http://sodipodi.sourceforge.net/DTD/sodipodi-0.dtd"
   xmlns:inkscape="http://www.inkscape.org/namespaces/inkscape"
   id="svg3406"
   version="1.1"
   inkscape:version="0.91 r13725"
   width="476.25"
   height="491.25"
   viewBox="0 0 476.25 491.25"
   sodipodi:docname="udesc_logo.svg">
  <metadata
     id="metadata3412">
    <rdf:RDF>
      <cc:Work
         rdf:about="">
        <dc:format>image/svg+xml</dc:format>
        <dc:type
           rdf:resource="http://purl.org/dc/dcmitype/StillImage" />
        <dc:title></dc:title>
      </cc:Work>
    </rdf:RDF>
  </metadata>
  <defs
     id="defs3410" />
  <sodipodi:namedview
     pagecolor="#ffffff"
     bordercolor="#666666"
     borderopacity="1"
     objecttolerance="10"
     gridtolerance="10"
     guidetolerance="10"
     inkscape:pageopacity="0"
     inkscape:pageshadow="2"
     inkscape:window-width="1920"
     inkscape:window-height="1020"
     id="namedview3408"
     showgrid="false"
     inkscape:zoom="0.90971129"
     inkscape:cx="238.125"
     inkscape:cy="200.39816"
     inkscape:window-x="0"
     inkscape:window-y="31"
     inkscape:window-maximized="1"
     inkscape:current-layer="svg3406" />
  <g
     id="g4216"
     transform="matrix(1.0571235,0,0,1.0571235,479.61957,2.607728)">
    <path
       style="fill:#f8f8f8"
       d="m -476.90659,216.74657 0,-245.624998 238.125,0 238.125,0 0,245.624998 0,245.625 -238.125,0 -238.125,0 0,-245.625 z"
       id="path4222"
       inkscape:connector-curvature="0" />
    <path
       style="fill:#a82a27"
       d="m -369.15419,395.39751 -7.5809,-1.64988 -8.6691,-4.18825 -8.66911,-4.18825 -8.84957,-8.78909 -8.84957,-8.78908 -4.00859,-8.14259 c -2.20472,-4.47843 -4.82511,-11.21084 -5.82309,-14.96091 l -1.81451,-6.81833 0,-10.625 0,-10.625 1.82697,-6.86555 1.82696,-6.86555 4.0957,-8.13445 4.0957,-8.13445 8.28473,-8.32782 8.28472,-8.32784 10.46528,-5.03996 10.46527,-5.03997 8.62913,-1.4814 8.62913,-1.48138 8.51425,0.79131 8.51426,0.79131 8.00608,2.90605 c 4.40334,1.59833 10.75131,4.51065 14.10661,6.47184 l 6.10054,3.56577 6.96085,6.96104 6.96085,6.96105 4.53759,8.13058 4.5376,8.13058 2.0285,7.49442 2.0285,7.49442 10e-4,11.25 0.001,11.25 -2.55779,8.125 -2.55779,8.125 -4.72059,7.96231 -4.7206,7.96232 -6.96551,6.4537 -6.96551,6.4537 -8.78837,4.61816 -8.78839,4.61816 -7.9961,1.88485 -7.99611,1.88485 -7.5,-0.0809 -7.5,-0.0809 -7.5809,-1.64987 z m 219.45587,-236.26978 -8.125,-1.83304 -8.96385,-4.41881 -8.96386,-4.41881 -8.01814,-7.79298 -8.01813,-7.79296 -4.4518,-8.125 -4.45178,-8.12501 -2.14392,-7.49999 -2.14391,-7.5 -0.0517,-10.625005 -0.0517,-10.624999 2.1737,-7.43465 c 1.19554,-4.089059 3.89147,-10.839059 5.99099,-15 l 3.81729,-7.56535 8.88844,-8.853625 8.88844,-8.853625 8.125,-3.93185 8.12499,-3.931852 7.45013,-1.902023 7.45016,-1.902025 8.84975,0 8.84975,0 7.45012,1.897388 7.45013,1.897388 8.125,4.040112 8.125004,4.040112 8.79975,8.75 8.79974,8.75 3.90751,7.5 3.90752,7.5 2.10318,8.125 2.10319,8.125 -0.53059,12.499999 -0.53057,12.500005 -3.64943,9.15815 -3.64941,9.15818 -6.25545,8.29878 -6.25544,8.2988 -9.375,6.34028 -9.375004,6.34026 -8.62759,2.81906 -8.6276,2.81907 -9.4974,0.55352 -9.49741,0.55353 -8.125,-1.83303 z"
       id="path4220"
       inkscape:connector-curvature="0"
       sodipodi:nodetypes="ccccccsscccccccccccccccsscccccccccccccccccccccccccccccccccccssccccccccccccccccccccccccccccccccc" />
    <path
       style="fill:#0b412f"
       d="m -461.52032,437.05907 -1.01127,-1.5625 -0.38793,-48.75 -0.38793,-48.75 1.28037,-13.75 1.28037,-13.75 1.96555,-7.42312 c 2.69037,-10.16054 7.0547,-20.67189 12.0563,-29.03724 l 4.19327,-7.01339 9.2768,-9.91539 9.2768,-9.91538 7.70914,-5.50114 7.70915,-5.50113 9.26405,-4.39455 9.26406,-4.39455 10.625,-2.82705 10.625,-2.82706 124.375,0 124.375,0 10.625,2.82706 10.625,2.82705 9.264063,4.39455 9.26405,4.39455 7.61095,5.48248 c 20.309049,14.62947 34.791312,35.72105 42.289062,61.58869 l 2.821875,9.73562 0,62.5 0,62.5 -116.875,0.34351 -116.875,0.34352 -2.8125,-0.67983 -2.8125,-0.67982 -0.0216,-52.16369 -0.0216,-52.16369 -1.2195,-11.5757 -1.2195,-11.57569 -2.59337,-7.79931 -2.59338,-7.7993 -4.96076,-8.41979 -4.96076,-8.4198 -7.90473,-7.98292 -7.90473,-7.98294 -8.88991,-5.2814 -8.88991,-5.2814 -9.72256,-3.21809 -9.72257,-3.21807 -16.25,0 -16.25,0 -9.72256,3.21807 -9.72256,3.21809 -8.7182,5.17939 -8.71821,5.17939 -6.63359,6.50473 -6.6336,6.50474 -5.27887,7.8039 c -6.14365,9.08231 -9.35184,16.15415 -12.22324,26.94376 l -2.0631,7.75234 0.24281,59.15855 0.24281,59.15855 -1.4764,1.77895 -1.4764,1.77895 -9.14817,0 -9.14817,0 -1.01127,-1.5625 z m 98.11358,-233.43899 c -48.05931,-6.044 -91.07373,-45.60751 -95.89063,-81.88773 l -1.90924,-9.69406 -2.18285,-13.083434 0.15089,-12.208284 0.17538,-48.75 0.17539,-48.75 1.15959,-2.1875 1.15958,-2.1875 117.76852,0.01914 117.76852,0.01914 1.44873,0.921811 1.44872,0.921811 2.3113,60.621548 0.8527,60.621548 0.096,7.36448 c 0.0549,4.21733 3.77879,10.80045 5.78424,15 l 3.64626,7.63552 6.32547,8.38058 6.32547,8.38057 8.38058,6.34112 8.38057,6.34111 7.5,3.61452 7.5,3.61452 8.125,2.1313 8.125,2.1313 13.75,0 13.75,0 8.125,-2.13795 8.125,-2.13795 9.375,-4.87064 9.375,-4.87065 5.907363,-4.88404 c 3.24905,-2.68622 8.488862,-7.89899 11.644012,-11.58391 l 5.736663,-6.69988 4.90605,-10 4.906062,-10 1.887425,-7.45012 1.887425,-7.45013 0,-59.584318 0,-59.584321 1.759375,-1.460152 1.759375,-1.460151 8.302977,0.07788 11.80357,0.07789 -1.40701,59.958432 0.343288,59.375 -2.003175,9.98036 -2.003175,9.98037 -3.63315,9.39463 -3.633137,9.39464 -5.320825,8.125 -5.320838,8.125 -8.451187,8.89789 -8.451188,8.8979 -8.915175,5.98142 -8.915175,5.98144 -8.603112,3.61464 c -4.731725,1.98806 -12.953108,4.84014 -18.269778,6.33795 l -9.66666,2.7233 -119.375,0.18427 c -65.65625,0.10138 -102.39267,1.13896 -104.45517,0.87955 z"
       id="path4218"
       inkscape:connector-curvature="0"
       sodipodi:nodetypes="ccccccsscccccccccccccccsscccccccccccccccccccccccccccccssccccccccccscccccccccccccsscccccccccccccccsscccccccccccccccccccccccsscscc" />
  </g>
</svg>
