<?xml version="1.0" standalone="no"?>
<!DOCTYPE svg PUBLIC "-//W3C//DTD SVG 20010904//EN"
 "http://www.w3.org/TR/2001/REC-SVG-20010904/DTD/svg10.dtd">
<svg version="1.0" xmlns="http://www.w3.org/2000/svg"
 width="1429.000000pt" height="1116.000000pt" viewBox="0 0 1429.000000 1116.000000"
 preserveAspectRatio="xMidYMid meet">
<metadata>
Created by potrace 1.12, written by Peter Selinger 2001-2015
</metadata>
<g transform="translate(0.000000,1116.000000) scale(0.100000,-0.100000)"
fill="#000000" stroke="none">
<path d="M11259 10798 c-40 -54 -103 -188 -118 -250 -16 -67 -14 -223 4 -293
19 -73 65 -174 108 -237 26 -38 38 -48 60 -48 16 0 27 3 25 8 -2 4 -19 39 -39
77 -57 110 -80 195 -86 320 -7 138 17 246 79 367 24 46 44 86 46 91 2 4 -8 7
-22 7 -19 0 -34 -12 -57 -42z"/>
<path d="M13775 10753 c120 -235 114 -495 -17 -730 l-29 -53 29 0 c33 0 56 28
115 147 49 97 70 181 70 288 0 108 -19 188 -69 286 -60 120 -83 149 -115 149
l-29 0 45 -87z"/>
<path d="M8930 10705 l0 -114 -26 24 c-31 29 -78 39 -141 32 -108 -12 -170
-114 -161 -268 8 -136 83 -219 197 -219 55 0 82 10 119 43 l22 20 0 -26 c0
-24 4 -27 35 -27 l35 0 0 325 0 325 -40 0 -40 0 0 -115z m-75 -131 c42 -19 61
-49 76 -111 24 -107 -13 -206 -87 -232 -37 -13 -44 -12 -80 5 -114 56 -113
297 1 344 31 13 54 11 90 -6z"/>
<path d="M9950 10710 l0 -111 -37 26 c-70 47 -189 27 -242 -41 -54 -69 -66
-227 -23 -309 40 -78 97 -115 178 -115 49 0 76 11 112 43 l22 20 0 -26 c0 -24
4 -27 35 -27 l35 0 0 325 0 325 -40 0 -40 0 0 -110z m-54 -145 c41 -27 58 -72
59 -160 0 -93 -14 -128 -65 -163 -57 -39 -131 -16 -167 51 -24 46 -24 180 0
225 37 67 111 88 173 47z"/>
<path d="M11420 10815 c0 -2 46 -69 102 -147 56 -79 102 -150 102 -158 0 -8
-53 -86 -117 -172 -64 -86 -117 -160 -117 -163 0 -3 22 -5 48 -5 l48 0 88 123
c48 67 92 129 96 137 5 8 11 12 13 10 2 -3 46 -65 96 -137 l93 -133 55 0 c43
0 53 3 46 13 -38 47 -225 311 -230 323 -3 8 6 29 19 47 14 17 64 85 112 150
l86 117 -48 0 -48 0 -89 -120 c-49 -67 -91 -117 -95 -113 -4 4 -42 59 -85 121
l-78 112 -48 0 c-27 0 -49 -2 -49 -5z"/>
<path d="M12375 10633 l125 -188 0 -137 0 -138 45 0 45 0 0 140 0 140 125 180
c69 100 125 183 125 186 0 2 -21 4 -47 4 l-48 0 -98 -150 -99 -150 -52 82
c-29 46 -72 113 -96 151 l-44 67 -53 0 -53 0 125 -187z"/>
<path d="M13170 10785 l0 -35 179 -2 180 -3 -200 -249 c-182 -227 -199 -251
-199 -287 l0 -39 260 0 260 0 0 35 0 35 -205 0 c-113 0 -205 3 -205 8 0 4 90
117 200 252 179 220 199 249 200 283 l0 37 -235 0 -235 0 0 -35z"/>
<path d="M9239 10640 c-42 -12 -75 -38 -94 -74 -23 -43 -15 -66 24 -66 24 0
34 7 46 31 47 90 225 68 225 -27 0 -18 -4 -35 -9 -38 -5 -3 -55 -13 -112 -21
-57 -9 -117 -24 -134 -33 -93 -55 -99 -179 -12 -232 52 -32 151 -28 220 9 l55
29 6 -24 c5 -20 12 -24 47 -24 38 0 41 2 34 23 -4 12 -10 104 -14 203 -7 201
-10 212 -78 240 -35 15 -161 17 -204 4z m201 -282 c0 -24 -8 -56 -19 -74 -55
-90 -221 -82 -221 10 0 19 8 40 18 50 15 13 151 49 210 55 8 1 12 -13 12 -41z"/>
<path d="M10255 10634 c-16 -9 -45 -30 -63 -47 -82 -79 -82 -285 0 -364 56
-53 92 -65 174 -61 61 3 79 8 115 33 66 46 90 103 90 210 1 106 -24 163 -90
210 -37 26 -53 30 -119 33 -56 2 -85 -2 -107 -14z m175 -72 c41 -30 60 -79 60
-157 0 -118 -49 -181 -138 -179 -57 0 -95 23 -116 69 -53 111 -13 259 76 287
34 10 89 1 118 -20z"/>
<path d="M10730 10632 c-40 -20 -80 -74 -80 -109 0 -13 6 -39 14 -58 18 -41
60 -64 174 -95 46 -12 90 -29 98 -37 39 -39 -6 -102 -78 -110 -56 -5 -108 21
-128 65 -14 30 -18 32 -50 26 -19 -3 -37 -7 -38 -9 -10 -9 21 -75 46 -98 38
-36 73 -47 150 -47 123 1 192 55 192 150 0 74 -25 95 -160 136 -126 39 -140
46 -140 79 0 75 158 87 195 14 15 -29 30 -33 72 -21 l22 7 -19 43 c-15 33 -29
47 -62 62 -56 26 -160 27 -208 2z"/>
<path d="M11270 9192 c0 -562 -2 -681 -13 -684 -11 -2 -8 -17 13 -63 l27 -60
20 62 21 62 -21 3 -22 3 -5 672 c-3 369 -8 675 -12 679 -5 4 -8 -299 -8 -674z"/>
<path d="M376 9478 c5 -7 54 -78 111 -157 65 -90 100 -148 95 -155 -5 -6 -58
-76 -117 -156 -59 -80 -112 -151 -118 -157 -7 -10 3 -13 44 -13 l54 0 95 135
c52 74 95 135 95 135 1 0 44 -61 96 -135 l94 -135 53 0 c40 0 51 3 46 13 -5 6
-59 83 -121 170 l-114 158 38 52 c20 29 70 96 110 149 40 53 73 100 73 103 0
3 -20 5 -44 5 l-44 0 -88 -120 c-49 -65 -91 -119 -94 -119 -3 0 -41 53 -85
117 l-80 117 -53 3 c-42 2 -52 0 -46 -10z"/>
<path d="M2200 9309 c-14 -5 -37 -22 -52 -36 l-28 -27 0 32 c0 30 -2 32 -35
32 l-35 0 0 -235 0 -235 39 0 39 0 4 163 c5 177 13 209 59 233 35 17 89 18
113 1 27 -20 36 -79 36 -244 l0 -153 40 0 40 0 0 171 0 171 34 34 c26 26 42
34 71 34 84 0 95 -29 95 -246 l0 -164 41 0 41 0 -4 193 c-3 217 -12 247 -73
273 -70 29 -178 5 -205 -46 -10 -18 -12 -17 -44 17 -30 33 -39 37 -92 40 -32
1 -70 -2 -84 -8z"/>
<path d="M2905 9301 c-51 -23 -83 -58 -91 -99 -6 -32 -6 -32 35 -32 28 0 41 4
41 14 0 27 35 57 78 67 84 18 152 -19 152 -83 0 -35 -15 -41 -129 -57 -47 -6
-101 -19 -120 -29 -73 -36 -102 -123 -61 -189 45 -74 166 -90 263 -35 l55 31
6 -24 c6 -22 12 -25 47 -25 38 0 41 2 34 23 -4 12 -10 104 -14 204 -6 171 -7
183 -29 206 -46 49 -190 64 -267 28z m215 -271 c0 -86 -56 -140 -146 -140 -62
0 -94 25 -94 74 0 48 25 64 126 82 49 9 91 17 93 20 13 13 21 -1 21 -36z"/>
<path d="M3434 9284 l-34 -35 0 30 c0 29 -3 31 -35 31 l-35 0 0 -235 0 -235
40 0 40 0 0 148 c0 81 5 163 10 183 16 57 72 84 120 59 16 -8 20 -5 31 27 10
32 9 38 -7 50 -10 7 -36 13 -57 13 -32 0 -46 -7 -73 -36z"/>
<path d="M3735 9301 c-91 -41 -133 -132 -122 -264 11 -133 87 -209 210 -210
72 0 110 16 155 67 27 31 51 91 40 101 -2 3 -19 6 -37 7 -30 3 -35 -1 -45 -29
-6 -18 -21 -42 -32 -54 -27 -26 -99 -35 -134 -17 -61 33 -93 140 -70 237 14
61 45 96 97 111 53 16 104 -7 128 -57 14 -28 21 -34 38 -29 12 3 30 6 40 6 16
0 16 2 2 37 -33 78 -88 113 -177 113 -29 0 -71 -9 -93 -19z"/>
<path d="M4397 9306 c-45 -16 -74 -40 -93 -78 -24 -46 -19 -58 25 -58 33 0 40
4 45 25 9 37 49 58 111 59 73 1 109 -25 113 -82 l3 -40 -73 -12 c-157 -24
-177 -31 -212 -64 -59 -56 -57 -152 5 -198 60 -45 171 -42 248 6 l39 25 6 -24
c6 -22 12 -25 47 -25 38 0 41 2 34 23 -4 12 -9 102 -12 200 -5 171 -7 180 -30
207 -13 16 -41 34 -61 40 -51 14 -150 12 -195 -4z m203 -276 c0 -86 -56 -140
-146 -140 -62 0 -94 25 -94 74 0 48 25 64 126 82 49 9 91 17 93 20 13 13 21
-1 21 -36z"/>
<path d="M4100 9075 l0 -235 35 0 35 0 0 235 0 235 -35 0 -35 0 0 -235z"/>
<path d="M1250 9260 l0 -40 215 0 215 0 0 40 0 40 -215 0 -215 0 0 -40z"/>
<path d="M8027 9244 c-21 -29 -88 -116 -150 -191 -138 -169 -255 -322 -331
-430 -32 -46 -62 -83 -68 -83 -9 0 -2292 608 -2351 626 -11 3 -16 12 -13 20 4
11 -5 14 -42 14 -26 0 -57 -3 -70 -6 -20 -6 -17 -10 30 -40 46 -29 55 -31 64
-18 10 13 170 -28 1189 -300 647 -173 1179 -317 1181 -319 2 -2 -25 -61 -60
-130 -93 -186 -129 -347 -103 -470 l8 -37 -928 2 -927 3 -6 21 c-5 20 -6 20
-64 -6 l-59 -27 60 -21 c60 -20 61 -20 66 -1 5 19 27 19 932 17 l928 -3 37
-90 c56 -138 161 -307 299 -480 40 -49 68 -91 64 -92 -4 -1 -552 -126 -1218
-278 -1012 -231 -1212 -274 -1219 -262 -8 12 -18 10 -58 -15 -27 -17 -46 -33
-43 -37 4 -3 29 -11 56 -17 48 -11 49 -10 49 12 0 17 7 24 33 30 17 3 570 129
1227 280 l1195 273 55 -62 c30 -34 122 -134 204 -222 217 -232 201 -212 187
-229 -10 -12 -2 -20 44 -46 31 -18 58 -30 60 -28 2 2 -8 29 -22 61 -19 42 -29
54 -38 47 -9 -7 -61 43 -191 182 -260 280 -264 284 -264 295 0 5 312 80 693
167 380 87 694 160 696 162 2 2 2 7 -2 10 -4 4 -1301 -285 -1398 -312 -19 -5
-126 125 -237 289 -73 109 -165 283 -178 339 l-6 28 823 3 824 2 -827 3 -827
2 -8 38 c-28 133 15 310 125 507 25 44 46 81 47 83 2 2 335 -85 740 -193 634
-170 767 -202 744 -181 -2 2 -330 90 -729 197 -399 106 -729 195 -733 199 -10
9 137 214 285 398 243 300 285 357 271 365 -4 3 -25 -19 -46 -49z"/>
<path d="M1250 9060 l0 -40 215 0 215 0 0 40 0 40 -215 0 -215 0 0 -40z"/>
<path d="M426 8308 c32 -46 82 -116 111 -156 l52 -73 -90 -122 c-49 -67 -106
-143 -125 -169 l-36 -48 54 0 53 0 95 135 c52 74 95 135 96 135 0 0 43 -61 95
-135 l94 -134 54 -1 53 0 -18 28 c-10 15 -64 91 -121 170 -63 86 -101 147 -96
155 4 7 53 74 110 149 57 76 103 140 103 143 0 3 -20 5 -44 5 l-44 0 -88 -120
c-49 -65 -91 -119 -94 -119 -3 0 -22 26 -42 57 -21 31 -58 85 -83 120 -45 62
-45 62 -96 62 l-50 0 57 -82z"/>
<path d="M3123 8350 c-31 -19 -33 -23 -33 -80 l0 -60 -30 0 c-27 0 -30 -3 -30
-30 0 -27 3 -30 30 -30 l30 0 0 -181 0 -181 29 -29 c26 -25 37 -29 85 -29 60
0 64 5 50 58 -5 16 -12 21 -25 17 -10 -3 -27 -1 -39 5 -19 10 -20 20 -20 175
l0 165 40 0 c38 0 40 2 40 30 0 28 -2 30 -40 30 l-40 0 0 80 c0 44 -3 80 -7
80 -5 0 -23 -9 -40 -20z"/>
<path d="M12057 8272 c-46 -70 -97 -181 -112 -244 -41 -173 -1 -366 108 -530
26 -38 38 -48 60 -48 16 0 27 3 25 8 -103 200 -122 268 -122 427 0 143 16 211
79 338 l44 87 -28 0 c-22 0 -34 -9 -54 -38z"/>
<path d="M12896 8223 c62 -124 78 -194 79 -338 0 -142 -15 -208 -80 -342 l-44
-93 28 0 c23 0 35 9 59 48 91 141 126 261 120 411 -5 127 -32 213 -103 326
-40 65 -50 75 -75 75 l-28 0 44 -87z"/>
<path d="M12220 8295 c0 -2 45 -68 101 -146 56 -79 103 -148 106 -156 3 -7
-49 -86 -116 -175 -67 -90 -121 -166 -121 -170 0 -5 21 -8 48 -8 l47 0 99 139
100 139 98 -139 98 -139 50 0 c28 0 50 3 50 6 0 3 -52 78 -116 166 -63 88
-117 165 -120 171 -2 7 42 75 99 152 56 77 106 146 111 153 5 9 -5 12 -38 12
l-46 0 -88 -119 c-48 -66 -89 -120 -92 -120 -3 -1 -43 53 -89 119 l-83 120
-49 0 c-27 0 -49 -2 -49 -5z"/>
<path d="M2147 8206 c-49 -18 -76 -42 -94 -84 -17 -41 -11 -52 32 -52 24 0 35
5 39 18 4 11 17 29 31 42 20 19 36 23 82 23 32 0 68 -5 80 -11 25 -14 52 -87
37 -102 -5 -5 -57 -17 -114 -26 -163 -25 -210 -60 -210 -154 0 -93 56 -134
175 -128 57 2 80 9 112 30 42 28 53 27 53 -4 0 -15 8 -18 45 -18 44 0 44 0 35
26 -6 14 -10 96 -10 182 0 191 -12 229 -79 255 -50 21 -161 22 -214 3z m208
-283 c-3 -27 -13 -58 -21 -71 -41 -63 -153 -84 -199 -37 -53 52 -22 106 72
125 32 6 74 15 93 19 63 16 63 16 55 -36z"/>
<path d="M2705 8205 c-16 -9 -40 -26 -52 -37 l-23 -21 0 31 c0 30 -2 32 -35
32 l-35 0 0 -235 0 -235 40 0 40 0 0 138 c1 166 9 208 50 245 41 36 106 38
147 3 l28 -24 3 -181 3 -181 40 0 39 0 0 183 c0 200 -7 230 -63 271 -37 27
-140 33 -182 11z"/>
<path d="M3424 8201 c-168 -76 -166 -387 3 -457 47 -20 150 -17 198 5 82 38
117 104 117 223 1 116 -37 189 -116 227 -54 27 -146 28 -202 2z m174 -69 c59
-39 84 -184 44 -262 -21 -42 -75 -80 -114 -80 -77 0 -132 56 -144 147 -21 160
99 270 214 195z"/>
<path d="M3990 8209 c-14 -6 -37 -22 -52 -36 l-28 -27 0 32 c0 30 -2 32 -35
32 l-35 0 0 -235 0 -235 40 0 40 0 0 150 c0 115 4 159 16 190 19 47 55 70 109
70 90 0 105 -36 105 -250 l0 -160 41 0 41 0 -4 194 c-3 217 -8 232 -79 268
-37 20 -119 23 -159 7z"/>
<path d="M4639 8192 c-43 -22 -59 -38 -81 -81 -24 -45 -28 -65 -28 -131 0
-169 71 -250 218 -250 137 0 212 74 220 218 5 95 -9 151 -51 199 -68 77 -181
96 -278 45z m180 -60 c54 -40 66 -68 66 -155 0 -123 -36 -175 -128 -184 -86
-9 -146 66 -147 179 0 95 39 163 105 181 31 8 77 -1 104 -21z"/>
<path d="M4350 7975 l0 -235 40 0 40 0 0 235 0 235 -40 0 -40 0 0 -235z"/>
<path d="M1250 8160 l0 -40 215 0 215 0 0 40 0 40 -215 0 -215 0 0 -40z"/>
<path d="M9774 8111 c-23 -10 -47 -27 -53 -38 -9 -15 -10 -13 -11 15 0 31 -2
32 -40 32 l-40 0 2 -237 3 -238 36 -3 37 -3 4 168 c4 183 9 202 61 233 45 28
99 26 134 -4 l28 -24 3 -186 3 -186 40 0 39 0 0 188 c0 205 -7 235 -62 276
-40 29 -131 32 -184 7z"/>
<path d="M10230 8103 c-44 -23 -60 -39 -82 -82 -24 -46 -28 -64 -28 -140 0
-103 19 -152 76 -199 102 -84 265 -56 332 56 24 42 27 56 27 142 0 83 -3 101
-25 140 -38 68 -94 102 -177 107 -61 4 -74 2 -123 -24z m195 -76 c41 -41 59
-104 51 -175 -12 -106 -63 -156 -149 -149 -83 7 -127 68 -127 176 0 120 48
181 144 181 41 0 53 -5 81 -33z"/>
<path d="M10790 8109 c-19 -11 -41 -28 -47 -37 -11 -14 -13 -11 -13 16 0 30
-2 32 -35 32 l-35 0 0 -241 0 -240 38 3 37 3 5 172 c4 154 7 175 26 200 24 31
77 49 118 39 47 -12 56 -53 56 -246 l0 -170 40 0 40 0 0 163 c0 134 3 168 18
197 31 62 112 81 157 35 25 -24 25 -26 25 -210 l0 -185 40 0 40 0 0 193 c0
218 -8 248 -70 279 -65 33 -141 20 -196 -33 l-31 -30 -10 24 c-25 54 -138 74
-203 36z"/>
<path d="M11525 8111 c-50 -23 -89 -64 -110 -115 -22 -53 -22 -178 0 -234 66
-163 325 -173 400 -16 9 20 15 37 13 39 -1 2 -20 5 -40 6 -33 3 -40 -1 -60
-31 -28 -42 -61 -60 -108 -60 -66 0 -125 53 -137 124 l-6 36 177 0 176 0 0 43
c0 132 -90 227 -215 227 -28 0 -68 -9 -90 -19z m177 -77 c23 -22 33 -39 42
-76 l6 -28 -135 0 -136 0 7 23 c3 12 13 34 20 49 33 64 141 81 196 32z"/>
<path d="M1250 7960 l0 -40 215 0 215 0 0 40 0 40 -215 0 -215 0 0 -40z"/>
<path d="M11332 6747 c-2 -628 -3 -649 -21 -654 -19 -5 -19 -6 1 -64 11 -32
21 -59 23 -59 2 0 12 27 23 59 20 58 20 59 1 64 -18 5 -19 27 -22 654 l-2 648
-3 -648z"/>
<path d="M2108 7271 c-29 -25 -32 -35 -36 -95 l-4 -66 -34 0 c-31 0 -34 -3
-34 -30 0 -28 3 -30 35 -30 l35 0 0 -205 0 -205 40 0 40 0 0 205 0 205 45 0
c43 0 45 1 45 30 0 29 -2 30 -45 30 l-45 0 0 38 c0 58 22 82 76 82 37 0 44 3
44 19 0 11 3 26 6 35 5 14 -4 16 -65 16 -64 0 -74 -3 -103 -29z"/>
<path d="M388 7263 c11 -16 60 -86 110 -156 l91 -128 -116 -157 c-63 -86 -120
-163 -126 -169 -7 -10 3 -13 44 -13 l54 1 95 134 c52 73 97 132 100 130 3 -2
46 -62 95 -134 l90 -130 53 -1 c40 0 51 3 46 13 -4 6 -57 81 -117 166 -61 85
-110 159 -110 166 0 6 48 75 106 153 59 78 107 144 107 147 0 3 -20 5 -44 5
l-44 0 -88 -119 c-49 -66 -91 -120 -94 -120 -3 0 -22 26 -42 57 -21 31 -58 85
-83 120 -45 62 -45 62 -96 62 l-50 0 19 -27z"/>
<path d="M2820 6965 l0 -325 35 0 c31 0 35 3 35 27 l0 26 23 -20 c36 -33 63
-43 117 -43 112 0 189 87 198 226 7 115 -34 206 -110 245 -54 28 -140 23 -186
-10 l-32 -22 0 110 0 111 -40 0 -40 0 0 -325z m267 70 c41 -27 58 -73 58 -160
0 -92 -17 -134 -68 -166 -43 -27 -99 -20 -137 16 -54 52 -65 198 -20 271 38
60 109 77 167 39z"/>
<path d="M2405 7107 c-53 -21 -71 -35 -90 -70 -24 -45 -15 -67 27 -67 27 0 36
6 48 33 28 60 145 73 197 21 23 -23 32 -77 14 -88 -5 -4 -57 -13 -115 -22 -58
-9 -119 -25 -136 -35 -88 -54 -92 -177 -7 -229 52 -32 151 -28 220 9 l55 29 6
-24 c5 -20 12 -24 47 -24 38 0 41 2 34 23 -4 12 -10 104 -14 203 -7 201 -10
212 -78 240 -39 17 -166 17 -208 1z m205 -279 c0 -82 -60 -138 -145 -138 -37
0 -74 14 -87 34 -14 21 -8 73 10 90 15 13 151 49 210 55 8 1 12 -13 12 -41z"/>
<path d="M3434 7084 l-34 -35 0 30 c0 29 -3 31 -35 31 l-35 0 0 -235 0 -235
39 0 39 0 4 168 c2 140 6 172 21 195 21 32 60 44 98 30 26 -10 29 -9 42 26 14
34 14 37 -7 48 -11 7 -38 12 -60 13 -32 0 -45 -6 -72 -36z"/>
<path d="M3934 7101 c-79 -36 -114 -108 -114 -235 0 -97 23 -152 83 -200 33
-27 48 -31 111 -34 111 -6 173 33 205 127 6 19 10 35 9 37 -2 1 -19 5 -40 9
-34 6 -36 5 -42 -23 -16 -71 -102 -109 -171 -76 -51 24 -74 77 -75 169 0 116
48 180 137 180 38 0 49 -5 74 -33 16 -18 29 -40 29 -48 0 -12 6 -15 23 -10 12
3 30 6 41 6 15 0 17 5 11 27 -26 104 -167 156 -281 104z"/>
<path d="M4597 7106 c-49 -18 -64 -32 -88 -78 -24 -47 -19 -58 26 -58 24 0 35
5 39 18 4 11 18 30 32 43 21 19 36 24 83 24 73 0 108 -21 117 -71 3 -19 2 -40
-3 -45 -5 -5 -55 -16 -112 -24 -163 -25 -211 -61 -211 -160 0 -38 6 -52 34
-83 l34 -37 89 0 c81 0 93 3 131 28 50 33 50 33 54 5 2 -19 10 -24 47 -26 39
-3 43 -1 35 15 -4 10 -10 99 -13 198 -4 122 -10 187 -19 203 -31 55 -182 81
-275 48z m213 -268 c0 -82 -68 -148 -152 -148 -39 0 -54 5 -73 25 -14 13 -25
31 -25 39 0 30 23 65 49 74 22 9 151 36 189 41 7 0 12 -11 12 -31z"/>
<path d="M3640 6875 l0 -235 40 0 40 0 0 235 0 235 -40 0 -40 0 0 -235z"/>
<path d="M4300 6875 l0 -235 40 0 40 0 0 235 0 235 -40 0 -40 0 0 -235z"/>
<path d="M1250 7060 l0 -40 215 0 215 0 0 40 0 40 -215 0 -215 0 0 -40z"/>
<path d="M1250 6860 l0 -40 215 0 215 0 0 40 0 40 -215 0 -215 0 0 -40z"/>
<path d="M12144 5554 c-154 -241 -153 -503 4 -746 31 -48 42 -58 65 -58 16 0
27 3 25 8 -102 199 -122 268 -122 427 -1 144 16 213 78 338 l44 87 -29 0 c-25
0 -35 -9 -65 -56z"/>
<path d="M12995 5523 c63 -125 80 -194 79 -338 0 -159 -20 -228 -122 -427 -2
-5 9 -8 25 -8 23 0 34 10 65 58 89 137 122 253 116 402 -6 126 -30 207 -97
319 -40 67 -50 76 -78 79 l-32 3 44 -88z"/>
<path d="M10290 5489 l0 -110 -32 22 c-65 46 -170 36 -235 -24 -34 -31 -63
-118 -63 -191 0 -148 79 -246 198 -246 56 0 83 10 120 43 l22 20 0 -26 c0 -24
4 -27 35 -27 l35 0 0 325 0 325 -40 0 -40 0 0 -111z m-56 -144 c77 -50 87
-242 16 -310 -57 -55 -147 -37 -187 37 -26 49 -25 181 2 228 38 65 110 84 169
45z"/>
<path d="M11310 5490 l0 -111 -37 26 c-86 58 -215 19 -263 -81 -32 -65 -35
-209 -6 -264 44 -85 99 -120 185 -120 53 0 64 4 96 31 l35 31 0 -26 c0 -23 4
-26 35 -26 l35 0 0 325 0 325 -40 0 -40 0 0 -110z m-53 -145 c34 -22 55 -72
60 -140 7 -77 -9 -134 -46 -169 -60 -58 -148 -39 -186 40 -26 54 -26 165 0
219 34 69 109 91 172 50z"/>
<path d="M12290 5595 c0 -3 54 -86 120 -185 l120 -180 0 -140 0 -140 45 0 45
0 0 138 0 137 66 95 c37 52 95 137 131 188 l64 92 -51 0 -51 0 -98 -150 -98
-149 -97 149 -98 150 -49 0 c-27 0 -49 -2 -49 -5z"/>
<path d="M10580 5408 c-47 -24 -93 -81 -88 -107 2 -10 16 -17 38 -19 31 -2 37
2 50 30 27 59 135 74 195 26 21 -16 25 -27 23 -57 l-3 -36 -70 -13 c-163 -29
-179 -34 -211 -66 -61 -61 -53 -157 15 -203 27 -19 48 -23 104 -23 60 0 78 5
124 30 l53 30 6 -25 c5 -22 12 -25 50 -25 43 0 44 1 33 22 -7 13 -14 93 -17
200 -5 199 -11 216 -78 244 -54 23 -172 18 -224 -8z m220 -270 c0 -25 -8 -57
-20 -76 -54 -89 -220 -80 -220 12 0 19 8 40 18 50 15 13 151 49 210 55 8 1 12
-13 12 -41z"/>
<path d="M11625 5416 c-83 -38 -128 -120 -128 -235 1 -161 75 -240 226 -241
71 0 126 19 158 56 19 21 52 84 47 89 -2 1 -19 5 -39 9 -34 6 -38 4 -58 -29
-64 -108 -227 -69 -248 59 l-6 36 178 0 178 0 -5 64 c-7 78 -37 135 -91 173
-33 23 -52 28 -111 31 -45 1 -82 -3 -101 -12z m161 -71 c28 -18 49 -50 58 -87
l6 -28 -135 0 -135 0 6 28 c21 92 124 137 200 87z"/>
<path d="M9780 5185 l0 -235 40 0 40 0 0 235 0 235 -40 0 -40 0 0 -235z"/>
<path d="M8156 5200 l-269 -179 -1296 -14 c-1165 -12 -1297 -12 -1309 1 -11
14 -18 14 -73 -4 l-62 -19 66 -27 66 -26 3 22 3 21 1050 11 c578 7 1158 12
1289 13 l239 1 -69 -52 c-95 -71 -217 -194 -243 -245 -25 -49 -27 -102 -6
-142 19 -37 93 -102 169 -149 l61 -36 -1185 -295 c-1033 -256 -1185 -292
-1194 -278 -8 13 -15 11 -51 -16 -23 -18 -42 -36 -43 -42 -2 -5 20 -12 48 -15
46 -5 50 -4 50 15 0 19 91 43 1201 319 l1202 298 111 -53 c61 -29 221 -97 356
-151 135 -55 251 -102 259 -105 9 -4 12 -1 9 7 -2 7 -128 63 -279 124 -338
138 -424 177 -407 187 7 3 327 84 711 179 383 95 697 177 697 182 0 4 -4 8 -8
8 -5 0 -332 -81 -728 -179 l-719 -180 -77 46 c-88 53 -155 114 -174 159 -15
36 -7 75 25 127 28 45 151 162 243 231 l78 58 630 6 c415 3 630 8 630 15 0 7
-203 8 -616 4 l-616 -6 42 30 c23 17 88 60 144 96 238 155 326 215 320 224 -3
5 -6 9 -7 8 -1 0 -123 -81 -271 -179z"/>
<path d="M2226 5228 c4 -7 61 -93 126 -190 l118 -178 0 -140 0 -140 40 0 40 0
0 138 0 138 130 188 c72 103 130 189 130 192 0 2 -21 4 -47 4 l-48 0 -99 -152
c-85 -129 -101 -149 -110 -133 -6 9 -50 78 -98 151 l-87 134 -51 0 c-38 0 -49
-3 -44 -12z"/>
<path d="M4110 5181 c-30 -32 -74 -68 -97 -80 -40 -20 -43 -24 -43 -61 l0 -40
53 26 c28 15 64 35 79 46 l28 19 2 -253 3 -253 38 -3 37 -3 0 330 0 331 -22
-1 c-14 0 -44 -23 -78 -58z"/>
<path d="M4550 5229 c-62 -25 -100 -85 -100 -158 0 -39 6 -56 27 -81 14 -18
35 -35 46 -39 18 -7 15 -10 -19 -28 -97 -50 -111 -197 -26 -286 44 -47 80 -61
157 -61 134 0 215 74 215 194 0 67 -24 116 -72 148 l-40 26 25 12 c50 27 75
97 58 161 -12 43 -61 96 -104 112 -35 14 -133 13 -167 0z m133 -60 c54 -28 76
-108 42 -155 -37 -54 -125 -55 -169 -3 -71 84 29 208 127 158z m-12 -269 c19
-5 48 -24 65 -41 25 -27 29 -38 29 -89 0 -53 -3 -63 -31 -91 -66 -66 -179 -45
-216 39 -39 88 11 174 112 191 3 1 21 -4 41 -9z"/>
<path d="M3130 5010 l0 -40 215 0 215 0 0 40 0 40 -215 0 -215 0 0 -40z"/>
<path d="M3130 4810 l0 -40 215 0 215 0 0 40 0 40 -215 0 -215 0 0 -40z"/>
<path d="M11327 3643 c5 -912 4 -1013 -10 -1013 -14 0 -13 -8 5 -62 l21 -61
27 59 c26 58 26 59 6 64 -21 6 -21 11 -27 500 -3 272 -7 695 -9 940 -1 245 -6
477 -10 515 -5 39 -6 -386 -3 -942z"/>
<path d="M2226 4128 c4 -7 61 -93 126 -190 l118 -178 0 -140 0 -140 40 0 40 0
0 138 0 138 130 188 c72 103 130 189 130 192 0 2 -22 4 -48 4 l-48 0 -89 -137
c-48 -76 -93 -144 -100 -151 -8 -9 -23 7 -66 75 -31 49 -73 116 -95 150 l-39
62 -53 1 c-40 0 -51 -3 -46 -12z"/>
<path d="M4021 4122 c-49 -24 -92 -82 -98 -131 l-6 -41 41 0 c37 0 40 2 46 33
3 19 19 46 35 61 75 72 211 21 211 -79 0 -65 -32 -105 -208 -264 -91 -82 -142
-154 -142 -201 0 -19 5 -20 215 -20 l215 0 0 40 0 40 -155 0 c-88 0 -155 4
-155 9 0 5 44 49 98 98 135 123 172 162 193 208 43 94 10 203 -74 244 -56 27
-166 29 -216 3z"/>
<path d="M4536 4118 c-59 -35 -95 -106 -109 -217 -14 -112 0 -244 34 -315 57
-123 219 -152 310 -56 59 61 74 121 74 285 0 136 -1 142 -31 206 -42 89 -77
113 -169 117 -58 2 -77 -1 -109 -20z m175 -73 c40 -39 54 -102 53 -240 0 -145
-12 -193 -59 -234 -71 -62 -160 -23 -186 82 -16 64 -16 257 0 313 13 48 45 92
75 105 33 14 87 2 117 -26z"/>
<path d="M3130 3910 l0 -40 215 0 215 0 0 40 0 40 -215 0 -215 0 0 -40z"/>
<path d="M3130 3710 l0 -40 215 0 215 0 0 40 0 40 -215 0 -215 0 0 -40z"/>
<path d="M8275 2378 c-33 -17 -138 -66 -233 -109 -94 -43 -232 -108 -304 -144
l-132 -66 -961 10 c-528 6 -1074 11 -1214 11 -240 0 -253 1 -258 19 -5 19 -6
19 -64 -1 -32 -11 -59 -21 -59 -23 0 -2 27 -12 60 -23 53 -18 60 -19 60 -5 0
14 93 15 978 8 537 -4 1075 -10 1194 -14 l217 -6 -94 -58 c-242 -148 -316
-258 -254 -380 31 -60 129 -158 243 -243 54 -41 94 -74 88 -74 -6 0 -533 -83
-1171 -185 -639 -102 -1165 -185 -1170 -185 -6 0 -12 8 -16 19 -5 18 -9 17
-61 -11 -31 -17 -52 -34 -47 -38 4 -4 32 -12 61 -17 46 -9 52 -8 52 7 0 15 18
20 108 34 59 9 595 95 1191 190 l1084 173 111 -69 c61 -38 220 -130 353 -205
189 -107 240 -140 231 -150 -11 -14 -10 -15 62 -32 24 -5 46 -8 48 -7 2 2 -11
24 -29 49 -26 38 -35 44 -49 35 -14 -9 -50 8 -191 86 -329 185 -500 290 -481
298 9 4 377 64 817 134 440 69 802 128 804 130 20 18 -111 0 -831 -115 -453
-72 -828 -131 -834 -131 -19 0 -186 128 -257 198 -108 106 -137 170 -108 244
24 64 136 159 298 255 l92 54 828 -5 c456 -2 797 -1 758 4 -38 4 -244 8 -456
9 -212 0 -542 4 -734 8 l-348 6 59 30 c32 17 158 76 279 132 279 129 360 170
349 177 -5 3 -36 -8 -69 -24z"/>
<path d="M12195 2261 c-82 -127 -115 -231 -115 -366 0 -100 20 -184 64 -278
50 -104 90 -157 121 -157 31 0 31 1 0 55 -14 23 -38 78 -54 121 -76 208 -64
407 35 601 24 47 44 87 44 89 0 2 -11 4 -25 4 -20 0 -34 -14 -70 -69z"/>
<path d="M12950 2326 c0 -2 20 -42 44 -89 62 -122 81 -206 80 -352 0 -108 -3
-129 -33 -215 -18 -52 -45 -119 -62 -147 -16 -29 -29 -55 -29 -58 0 -3 11 -5
25 -5 30 0 71 52 120 155 44 91 65 180 65 280 0 100 -21 189 -65 280 -49 103
-90 155 -120 155 -14 0 -25 -2 -25 -4z"/>
<path d="M10290 1985 l0 -325 40 0 40 0 0 325 0 325 -40 0 -40 0 0 -325z"/>
<path d="M12390 2275 l0 -35 180 0 179 0 -199 -248 c-188 -234 -200 -251 -200
-290 l0 -42 260 0 260 0 0 35 0 35 -211 0 c-206 0 -211 0 -198 19 8 11 101
126 207 256 165 204 192 242 192 271 l0 34 -235 0 -235 0 0 -35z"/>
<path d="M10543 2269 c-31 -20 -33 -24 -33 -80 0 -56 -1 -59 -25 -59 -21 0
-25 -5 -25 -30 0 -25 4 -30 24 -30 l24 0 4 -177 c3 -98 9 -186 13 -196 10 -25
57 -47 99 -47 54 0 62 6 58 45 -4 32 -7 35 -38 35 -48 0 -54 22 -54 196 l0
144 45 0 c43 0 45 1 45 29 0 28 -3 30 -42 33 l-43 3 -3 78 c-2 42 -6 77 -10
77 -4 0 -22 -10 -39 -21z"/>
<path d="M1470 2230 l0 -40 180 0 179 0 -199 -250 c-185 -231 -200 -253 -200
-290 l0 -40 260 0 260 0 0 35 0 35 -205 0 c-221 0 -226 1 -181 49 13 15 103
125 200 245 164 203 177 221 174 255 l-3 36 -232 3 -233 2 0 -40z"/>
<path d="M3264 2212 c-29 -32 -73 -69 -98 -83 -42 -22 -46 -27 -46 -61 0 -21
2 -38 5 -38 12 0 92 44 123 67 l32 24 0 -255 0 -256 40 0 40 0 0 330 0 330
-22 0 c-15 0 -41 -21 -74 -58z"/>
<path d="M4575 2251 c-8 -25 -81 -93 -133 -122 -37 -21 -42 -28 -42 -61 0 -21
2 -38 5 -38 11 0 70 33 113 62 l42 29 0 -256 0 -255 40 0 40 0 0 330 0 330
-29 0 c-20 0 -32 -6 -36 -19z"/>
<path d="M3830 2220 l0 -40 160 0 160 0 -40 -52 c-84 -111 -167 -317 -185
-461 l-7 -57 41 0 c34 0 41 4 45 23 2 12 9 51 16 87 24 133 118 337 197 430
24 28 33 48 33 74 l0 36 -210 0 -210 0 0 -40z"/>
<path d="M9860 2118 c-53 -27 -103 -103 -79 -119 24 -15 69 -10 76 9 12 35 46
61 89 68 83 12 149 -31 142 -93 -3 -27 -5 -28 -108 -45 -127 -21 -174 -41
-200 -83 -29 -47 -27 -115 5 -153 35 -42 74 -55 153 -50 54 3 78 9 110 31 50
33 50 33 54 5 2 -19 10 -24 47 -26 39 -3 43 -1 35 15 -4 10 -10 99 -13 198 -7
202 -13 225 -76 251 -56 23 -182 18 -235 -8z m227 -280 c-9 -76 -66 -128 -141
-128 -78 0 -119 44 -96 101 14 33 22 37 130 59 122 25 114 28 107 -32z"/>
<path d="M11390 2127 c-9 -7 -24 -23 -33 -37 l-17 -24 0 32 c0 30 -2 32 -35
32 l-35 0 0 -235 0 -235 39 0 40 0 3 176 3 176 29 25 c25 21 36 24 72 19 40
-5 43 -4 55 26 11 27 10 32 -6 44 -23 17 -95 18 -115 1z"/>
<path d="M11655 2121 c-46 -21 -69 -44 -85 -85 -12 -34 -2 -46 41 -46 19 0 29
8 42 35 19 40 75 60 138 50 51 -9 77 -32 84 -77 7 -36 6 -37 -32 -47 -21 -5
-71 -15 -112 -21 -133 -19 -181 -60 -181 -151 0 -83 57 -129 159 -129 62 0 95
10 143 43 l28 18 10 -25 c8 -22 16 -26 50 -26 31 0 39 3 33 13 -4 6 -10 95
-13 197 -6 206 -10 219 -72 251 -51 26 -177 26 -233 0z m221 -278 c-12 -84
-69 -133 -154 -133 -76 0 -120 72 -72 120 20 20 23 21 130 44 107 22 103 23
96 -31z"/>
<path d="M10752 1943 c4 -203 9 -229 60 -266 29 -22 118 -34 162 -23 14 3 41
20 61 37 l35 31 0 -31 c0 -29 3 -31 35 -31 l35 0 0 235 0 235 -39 0 -39 0 -4
-167 c-3 -182 -10 -207 -64 -231 -35 -17 -96 -15 -121 3 -34 24 -43 76 -43
243 l0 152 -41 0 -41 0 4 -187z"/>
<path d="M2280 2035 l0 -35 215 0 215 0 0 35 0 35 -215 0 -215 0 0 -35z"/>
<path d="M2280 1835 l0 -35 215 0 215 0 0 35 0 35 -215 0 -215 0 0 -35z"/>
<path d="M1470 1130 l0 -40 179 0 180 0 -200 -249 c-187 -233 -199 -251 -199
-290 l0 -41 261 0 260 0 -3 38 -3 37 -202 3 c-112 1 -203 4 -203 7 0 2 90 115
201 251 187 230 200 249 197 283 l-3 36 -232 3 -233 2 0 -40z"/>
<path d="M3254 1105 c-33 -35 -77 -71 -97 -81 -33 -16 -37 -22 -37 -56 0 -21
2 -38 5 -38 12 0 92 44 123 67 l32 24 0 -255 0 -256 40 0 40 0 0 330 0 330
-22 -1 c-14 0 -46 -25 -84 -64z"/>
<path d="M3965 1157 c-45 -18 -70 -38 -94 -77 -40 -67 -22 -161 39 -196 l29
-18 -37 -21 c-84 -46 -106 -173 -45 -259 41 -57 101 -86 181 -86 132 0 212 74
212 195 0 70 -22 114 -77 151 l-31 21 34 26 c68 55 68 155 0 223 -50 50 -142
67 -211 41z m134 -73 c13 -9 29 -31 36 -48 29 -69 -17 -136 -92 -136 -55 0
-78 12 -98 50 -39 75 8 149 95 150 20 0 46 -7 59 -16z m2 -269 c40 -21 69 -71
69 -121 0 -153 -226 -179 -260 -29 -14 62 20 133 75 155 32 14 84 11 116 -5z"/>
<path d="M4381 996 c-17 -90 -31 -167 -31 -170 0 -3 16 -8 35 -12 30 -5 40 -2
70 25 31 27 43 31 90 31 49 0 60 -4 92 -34 35 -32 37 -38 41 -102 3 -60 0 -74
-20 -104 -65 -97 -198 -85 -230 21 -10 34 -15 39 -32 35 -12 -3 -31 -6 -43 -6
-20 0 -21 -3 -11 -37 26 -97 105 -148 218 -141 83 4 136 36 177 105 24 41 28
59 28 125 0 69 -3 80 -30 120 -43 61 -95 88 -170 87 -33 0 -71 -6 -85 -14 -14
-8 -28 -14 -31 -15 -3 0 1 37 10 83 l17 82 132 3 132 3 0 39 0 40 -164 0 -163
0 -32 -164z"/>
<path d="M2280 935 l0 -35 215 0 215 0 0 35 0 35 -215 0 -215 0 0 -35z"/>
<path d="M2280 735 l0 -35 215 0 215 0 0 35 0 35 -215 0 -215 0 0 -35z"/>
</g>
</svg>
