<?xml version="1.0" standalone="no"?>
<!DOCTYPE svg PUBLIC "-//W3C//DTD SVG 20010904//EN"
 "http://www.w3.org/TR/2001/REC-SVG-20010904/DTD/svg10.dtd">
<svg version="1.0" xmlns="http://www.w3.org/2000/svg"
 width="759.000000pt" height="653.000000pt" viewBox="0 0 759.000000 653.000000"
 preserveAspectRatio="xMidYMid meet">
<metadata>
Created by potrace 1.12, written by Peter Selinger 2001-2015
</metadata>
<g transform="translate(0.000000,653.000000) scale(0.100000,-0.100000)"
fill="#000000" stroke="none">
<path d="M2965 6261 c-39 -12 -75 -48 -75 -75 0 -16 51 -4 60 15 9 16 19 19
48 17 53 -4 56 -37 8 -82 -45 -42 -50 -86 -11 -86 16 0 25 6 25 16 0 9 18 36
40 60 22 24 40 50 40 59 0 8 -12 28 -27 44 -29 30 -73 43 -108 32z"/>
<path d="M4006 6248 c-32 -45 -49 -118 -44 -189 6 -77 42 -162 72 -168 16 -2
18 1 12 20 -42 134 -46 204 -16 289 11 30 19 58 20 63 0 16 -30 6 -44 -15z"/>
<path d="M4593 6218 c15 -39 21 -75 21 -138 0 -63 -6 -99 -21 -137 -21 -52
-21 -53 -1 -53 14 0 27 16 46 58 22 47 27 71 27 137 0 68 -5 88 -28 133 -18
35 -34 52 -46 52 -18 0 -18 -2 2 -52z"/>
<path d="M4234 6194 l44 -66 -44 -69 c-24 -38 -44 -71 -44 -74 0 -3 13 -5 30
-5 23 0 35 9 60 45 17 25 33 45 35 45 2 0 16 -20 32 -45 24 -38 33 -45 61 -45
37 0 38 -4 -20 82 -43 64 -43 62 13 145 16 23 29 44 29 47 0 3 -13 6 -30 6
-24 0 -35 -8 -55 -40 -14 -22 -27 -40 -30 -40 -3 0 -17 18 -31 40 -22 34 -32
40 -61 40 l-33 0 44 -66z"/>
<path d="M3462 6174 c-12 -8 -22 -10 -22 -5 0 6 -11 11 -25 11 l-25 0 0 -140
0 -140 25 0 c23 0 25 3 25 50 l0 49 29 -17 c27 -15 32 -15 64 0 25 12 39 27
47 53 32 98 -46 190 -118 139z"/>
<path d="M3663 6180 c-12 -5 -26 -18 -32 -28 -9 -16 -7 -21 11 -26 13 -3 29 1
38 9 20 18 42 19 58 3 20 -20 14 -25 -38 -38 -61 -15 -80 -32 -80 -70 0 -32
31 -60 65 -60 11 0 31 7 43 16 12 8 22 10 22 5 0 -6 12 -11 28 -11 l27 0 -5
90 c-3 49 -10 94 -17 101 -15 15 -92 21 -120 9z"/>
<path d="M3639 5889 c-1 -2 -2 -15 -3 -29 -1 -16 -182 -271 -486 -685 -267
-362 -490 -665 -496 -673 -9 -13 -59 -1 -330 78 -468 136 -527 151 -538 140
-15 -15 -6 -19 110 -50 60 -15 224 -62 364 -103 140 -41 279 -80 308 -88 33
-8 51 -17 48 -25 -12 -30 -460 -629 -470 -628 -6 1 -18 5 -27 8 -13 6 -20 -8
-38 -71 -12 -43 -25 -86 -27 -96 -4 -13 20 -1 80 39 84 56 85 57 64 74 l-21
17 24 34 c41 59 441 604 449 613 5 5 92 -12 197 -37 326 -79 526 -115 763
-138 291 -27 669 18 1138 136 75 19 142 35 148 35 6 0 143 -147 304 -327 l292
-326 -22 -17 c-23 -17 -23 -17 64 -65 48 -26 89 -45 92 -43 4 4 -61 153 -73
168 -2 2 -12 -1 -23 -8 -17 -10 -47 19 -302 304 -156 174 -284 319 -285 323
-2 3 50 21 115 39 64 18 279 82 477 142 198 60 379 114 402 120 29 7 41 15 37
24 -7 18 -27 13 -444 -114 -179 -54 -390 -117 -469 -140 l-144 -41 -33 33
c-31 32 -1132 1262 -1184 1323 -27 32 -59 60 -61 54z m638 -744 c351 -392 595
-673 589 -677 -37 -22 -510 -123 -721 -154 -184 -27 -525 -25 -715 4 -236 37
-693 136 -736 160 -10 6 89 147 412 587 234 319 455 620 491 668 35 49 68 87
72 85 4 -2 278 -304 608 -673z"/>
<path d="M2162 3417 c-55 -66 -68 -202 -29 -296 20 -50 49 -83 61 -70 3 3 -4
33 -14 68 -25 80 -25 162 0 243 11 34 20 64 20 66 0 8 -29 0 -38 -11z"/>
<path d="M3363 3378 c26 -66 28 -201 3 -267 -20 -54 -20 -61 0 -61 9 0 26 24
42 58 22 47 27 71 27 137 0 68 -5 88 -28 133 -18 35 -34 52 -46 52 -18 0 -18
-2 2 -52z"/>
<path d="M5976 3378 c-38 -79 -43 -143 -17 -225 32 -104 38 -107 147 -94 23 2
34 55 34 166 l0 115 -30 0 -30 0 0 -116 c0 -106 -2 -116 -19 -121 -11 -3 -22
-12 -23 -22 -2 -9 -12 9 -23 39 -25 74 -23 179 4 250 25 66 25 60 2 60 -14 0
-27 -16 -45 -52z"/>
<path d="M6912 3373 c28 -79 28 -189 0 -265 -20 -56 -20 -58 -2 -58 13 0 27
18 47 57 39 81 40 183 1 266 -20 41 -32 57 -47 57 -20 0 -20 0 1 -57z"/>
<path d="M690 3280 l0 -140 30 0 30 0 0 75 c0 71 2 76 25 87 38 17 49 -1 53
-87 4 -71 5 -75 28 -75 23 0 24 2 24 85 0 72 -3 88 -20 105 -21 21 -74 27 -85
10 -14 -23 -25 -7 -25 35 0 43 -1 45 -30 45 l-30 0 0 -140z"/>
<path d="M2850 3374 c0 -40 -2 -45 -17 -39 -70 30 -122 -1 -130 -76 -10 -87
51 -148 116 -116 17 9 31 11 31 6 0 -5 11 -9 25 -9 l25 0 0 140 0 140 -25 0
c-23 0 -25 -4 -25 -46z"/>
<path d="M4530 3280 l0 -140 24 0 c22 0 24 4 28 70 4 78 21 107 57 95 19 -6
21 -14 21 -86 l0 -79 30 0 30 0 0 80 c0 73 -3 83 -25 105 -28 29 -61 32 -93 9
-22 -15 -22 -15 -22 35 0 48 -2 51 -25 51 l-25 0 0 -140z"/>
<path d="M980 3338 c-14 -7 -33 -30 -44 -52 -36 -73 12 -151 94 -151 50 0 87
27 101 74 13 45 2 86 -31 116 -24 22 -89 29 -120 13z"/>
<path d="M1261 3341 c-8 -5 -29 -7 -48 -4 l-33 6 0 -102 0 -101 25 0 c24 0 25
2 25 69 0 73 17 108 47 97 8 -3 17 -6 19 -6 2 0 4 -36 4 -80 l0 -80 30 0 29 0
3 76 c2 61 7 79 21 88 30 18 47 -17 47 -96 0 -66 1 -68 25 -68 25 0 25 1 25
85 0 72 -3 88 -20 105 -24 24 -57 26 -88 4 -21 -15 -25 -15 -41 0 -19 18 -48
20 -70 7z"/>
<path d="M1573 3340 c-27 -11 -53 -59 -53 -100 0 -70 56 -119 120 -105 33 7
73 42 64 57 -7 11 -54 10 -54 -1 0 -15 -30 -21 -51 -11 -10 6 -19 20 -19 30 0
18 7 20 65 20 l65 0 0 31 c0 63 -72 105 -137 79z"/>
<path d="M1822 3334 c-12 -8 -22 -10 -22 -5 0 6 -11 11 -25 11 l-25 0 0 -100
0 -100 30 0 30 0 0 75 c0 65 3 76 21 85 36 20 49 -3 49 -86 0 -71 1 -74 24
-74 22 0 24 4 28 70 4 74 22 108 52 97 13 -5 16 -23 16 -87 l0 -80 30 0 30 0
0 85 c0 72 -3 88 -20 105 -24 24 -57 26 -88 4 -20 -14 -24 -14 -44 0 -12 9
-32 16 -43 16 -11 0 -31 -7 -43 -16z"/>
<path d="M2331 3341 c-8 -5 -29 -7 -48 -4 l-33 6 0 -142 0 -141 25 0 c23 0 25
3 25 50 l0 50 25 -16 c72 -47 150 57 112 149 -21 50 -69 71 -106 48z"/>
<path d="M2509 3321 c-24 -25 -29 -38 -29 -80 0 -71 31 -106 93 -106 46 0 87
24 87 52 0 18 -44 17 -60 -2 -17 -20 -33 -19 -54 4 -27 30 -11 41 60 41 70 0
72 3 53 59 -22 63 -102 80 -150 32z"/>
<path d="M3164 3340 c-66 -27 -84 -117 -35 -172 25 -28 36 -33 76 -33 40 0 51
5 76 33 79 88 -8 216 -117 172z"/>
<path d="M4825 3341 c-63 -26 -83 -125 -36 -175 66 -70 181 -25 181 72 0 54
-12 77 -50 97 -32 16 -64 18 -95 6z"/>
<path d="M5082 3334 c-12 -8 -22 -10 -22 -5 0 6 -11 11 -25 11 l-25 0 0 -100
0 -100 30 0 30 0 0 75 c0 65 3 76 21 85 36 20 49 -3 49 -86 0 -72 1 -74 25
-74 24 0 25 2 25 64 0 71 23 115 53 103 14 -5 17 -21 17 -87 l0 -80 30 0 30 0
0 75 c0 41 -5 86 -12 100 -15 34 -54 43 -91 22 -26 -15 -31 -15 -50 -2 -28 19
-57 19 -85 -1z"/>
<path d="M5389 3321 c-24 -25 -29 -38 -29 -80 0 -71 31 -106 93 -106 46 0 87
24 87 52 0 18 -44 17 -60 -2 -17 -20 -26 -19 -50 5 -30 30 -17 40 56 40 70 0
78 9 52 65 -26 58 -103 71 -149 26z"/>
<path d="M5662 3334 c-12 -8 -22 -10 -22 -5 0 6 -11 11 -25 11 l-25 0 0 -100
0 -100 25 0 c23 0 25 4 26 48 2 68 12 103 32 116 30 18 47 -17 47 -96 0 -66 1
-68 25 -68 24 0 25 2 25 69 0 73 17 108 47 97 8 -3 17 -6 19 -6 2 0 4 -36 4
-80 0 -79 0 -80 25 -80 25 0 25 1 25 89 0 82 -2 91 -22 105 -28 20 -58 20 -83
2 -17 -12 -22 -12 -39 0 -27 18 -56 18 -84 -2z"/>
<path d="M6245 3341 c-52 -22 -79 -100 -53 -150 34 -64 125 -76 174 -24 26 28
33 97 14 134 -21 39 -88 59 -135 40z"/>
<path d="M6453 3323 l-27 -26 23 -9 c17 -6 29 -4 41 7 21 19 49 19 57 0 7 -21
3 -24 -53 -38 -37 -9 -52 -19 -62 -40 -27 -56 36 -104 98 -74 16 9 30 11 30 6
0 -5 12 -9 28 -9 l27 0 -5 86 c-4 75 -8 88 -29 105 -35 29 -96 25 -128 -8z"/>
<path d="M6701 3336 c-71 -40 -68 -156 6 -191 94 -45 186 51 142 148 -22 49
-97 71 -148 43z"/>
<path d="M5373 2953 c-452 -2 -743 -7 -743 -12 0 -6 5 -13 11 -17 6 -3 537 -3
1180 1 981 6 1169 10 1169 21 0 12 -72 14 -437 12 -241 -2 -772 -4 -1180 -5z"/>
<path d="M790 2935 c0 -13 157 -15 1350 -15 1193 0 1350 2 1350 15 0 13 -157
15 -1350 15 -1193 0 -1350 -2 -1350 -15z"/>
<path d="M1905 1980 l7 -930 -26 0 c-14 0 -26 -4 -26 -9 0 -14 62 -173 66
-169 5 6 64 169 64 179 0 5 -11 9 -23 9 l-24 0 -6 518 c-4 284 -7 700 -7 925
0 369 -2 407 -16 407 -15 0 -16 -76 -9 -930z"/>
<path d="M5780 2873 c0 -10 11 -436 25 -948 14 -511 25 -938 25 -947 0 -13 -8
-18 -30 -18 l-29 0 34 -81 c53 -124 50 -122 73 -43 38 126 38 124 8 124 -14 0
-26 1 -26 3 -1 12 -50 1853 -50 1885 0 31 -4 42 -15 42 -8 0 -15 -8 -15 -17z"/>
<path d="M1370 435 c0 -2 18 -32 40 -66 l39 -61 -26 -41 c-14 -23 -34 -54 -44
-69 -25 -35 -24 -38 11 -38 23 0 35 9 60 45 17 25 35 43 40 40 5 -3 19 -23 31
-45 19 -34 28 -40 56 -40 18 0 33 2 33 6 0 3 -19 33 -42 66 -23 34 -41 67 -41
73 0 6 16 37 36 68 21 32 37 60 37 62 0 3 -13 5 -30 5 -24 0 -35 -8 -55 -40
-14 -22 -27 -40 -29 -40 -2 0 -15 18 -30 40 -21 32 -32 40 -56 40 -17 0 -30
-2 -30 -5z"/>
<path d="M2700 395 c0 -42 -2 -45 -19 -35 -34 18 -71 11 -96 -16 -20 -21 -25
-38 -25 -78 0 -87 49 -129 115 -101 19 7 35 10 35 4 0 -5 11 -9 25 -9 l25 0 0
140 0 140 -30 0 c-29 0 -30 -2 -30 -45z"/>
<path d="M5240 381 c22 -33 40 -66 40 -73 0 -7 -20 -44 -45 -81 l-45 -67 34 0
c30 0 38 6 63 45 15 25 31 45 35 45 4 0 19 -20 34 -45 23 -40 30 -45 61 -45
38 0 39 -4 -19 82 -21 31 -38 60 -38 63 0 3 15 29 33 58 18 29 37 58 41 65 5
9 -2 12 -27 12 -29 0 -37 -6 -56 -40 -12 -22 -25 -40 -29 -40 -4 0 -17 18 -30
40 -20 35 -27 40 -58 40 l-35 0 41 -59z"/>
<path d="M2100 225 l0 -145 30 0 c29 0 30 1 30 50 l0 50 24 -15 c54 -36 116
15 116 96 0 86 -68 136 -128 93 -20 -14 -22 -14 -22 0 0 10 -9 16 -25 16 l-25
0 0 -145z"/>
<path d="M2377 359 c-24 -14 -47 -62 -47 -99 0 -51 25 -88 69 -100 44 -11 66
-6 99 23 30 27 28 37 -8 37 -16 0 -30 -4 -30 -10 0 -17 -57 -12 -64 6 -12 30
-5 34 59 34 l65 0 0 31 c0 64 -86 111 -143 78z"/>
<path d="M3014 360 c-35 -14 -54 -50 -54 -101 0 -36 6 -52 25 -71 71 -71 185
-20 185 83 0 45 -56 99 -101 98 -19 0 -44 -4 -55 -9z"/>
<path d="M5940 254 c0 -105 -2 -116 -19 -121 -10 -3 -21 -16 -24 -29 -4 -22
-1 -24 32 -24 21 0 42 5 49 12 8 8 12 55 12 145 l0 133 -25 0 -25 0 0 -116z"/>
<path d="M6091 356 c-55 -30 -68 -114 -26 -164 61 -73 185 -29 185 65 0 88
-84 141 -159 99z"/>
<path d="M6310 350 c-11 -11 -20 -24 -20 -29 0 -16 34 -18 52 -3 21 17 68 8
68 -13 0 -10 -14 -17 -40 -21 -92 -15 -122 -86 -52 -123 17 -9 32 -10 52 -2
16 5 45 7 63 4 l34 -5 -5 88 c-3 74 -7 92 -24 107 -29 24 -102 23 -128 -3z"/>
<path d="M6560 357 c-34 -17 -62 -74 -54 -112 10 -49 31 -74 74 -85 56 -15
105 7 126 56 41 98 -52 188 -146 141z"/>
</g>
</svg>
