<?xml version="1.0" standalone="no"?>
<!DOCTYPE svg PUBLIC "-//W3C//DTD SVG 20010904//EN"
 "http://www.w3.org/TR/2001/REC-SVG-20010904/DTD/svg10.dtd">
<svg version="1.0" xmlns="http://www.w3.org/2000/svg"
 width="1345.000000pt" height="819.000000pt" viewBox="0 0 1345.000000 819.000000"
 preserveAspectRatio="xMidYMid meet">
<metadata>
Created by potrace 1.12, written by Peter Selinger 2001-2015
</metadata>
<g transform="translate(0.000000,819.000000) scale(0.100000,-0.100000)"
fill="#000000" stroke="none">
<path d="M9188 7643 l992 -3 0 -1558 -1 -1557 -34 65 c-19 36 -34 62 -35 58 0
-12 64 -138 70 -138 6 0 70 126 70 138 -1 4 -14 -18 -30 -48 l-29 -55 -1 1553
0 1552 -997 -2 -998 -3 993 -2z"/>
<path d="M3232 5220 l-3 -615 -30 59 c-17 32 -33 56 -35 53 -7 -6 58 -137 68
-137 4 0 24 32 43 70 19 39 31 70 27 70 -5 0 -19 -23 -33 -52 l-24 -51 -5 609
-5 609 -3 -615z"/>
<path d="M6405 5208 c-22 -5 -78 -19 -125 -30 -421 -99 -963 -296 -1425 -517
-93 -45 -170 -79 -173 -77 -2 3 10 22 27 43 17 21 31 42 31 47 0 5 -22 -20
-50 -54 -27 -34 -50 -66 -50 -71 0 -5 37 -8 83 -7 l82 2 -65 5 c-42 4 -66 11
-68 19 -1 8 2 11 7 8 5 -3 67 22 137 55 589 279 1073 451 1614 573 36 8 54 14
40 14 -14 0 -43 -4 -65 -10z"/>
<path d="M8140 5130 c500 -132 958 -302 1508 -560 73 -34 136 -59 142 -55 6 4
9 1 8 -7 -2 -8 -26 -15 -68 -19 l-65 -5 83 -2 c45 -1 82 2 82 7 0 11 -88 121
-97 121 -6 0 9 -22 41 -57 11 -13 17 -25 14 -28 -2 -3 -112 44 -244 104 -280
127 -681 289 -878 355 -230 77 -622 187 -658 185 -7 0 52 -18 132 -39z"/>
<path d="M1930 4330 c-11 -11 -20 -31 -20 -45 0 -16 -6 -25 -15 -25 -8 0 -15
-9 -15 -20 0 -11 7 -20 15 -20 12 0 15 -17 15 -95 0 -88 1 -95 20 -95 19 0 20
7 20 95 0 88 1 95 20 95 13 0 20 7 20 20 0 14 -7 20 -21 20 -31 0 -22 42 11
50 14 3 26 14 28 23 5 25 -52 23 -78 -3z"/>
<path d="M2570 4294 c0 -55 0 -55 -22 -40 -33 23 -64 20 -98 -11 -55 -49 -51
-147 8 -193 32 -26 67 -25 92 0 l20 20 0 -20 c0 -13 7 -20 20 -20 19 0 20 7
20 160 0 153 -1 160 -20 160 -18 0 -20 -7 -20 -56z m-20 -84 c24 -24 27 -86 4
-118 -34 -49 -104 -12 -104 56 0 73 55 107 100 62z"/>
<path d="M117 4250 c-22 -18 -27 -19 -27 -6 0 9 -8 16 -20 16 -19 0 -20 -7
-20 -160 0 -153 1 -160 20 -160 18 0 20 7 20 68 0 37 4 62 8 56 35 -52 118
-27 140 43 32 101 -50 199 -121 143z m75 -37 c24 -21 25 -99 1 -125 -20 -22
-61 -23 -85 -1 -23 20 -24 90 -2 121 18 26 60 29 86 5z"/>
<path d="M349 4252 c-83 -41 -68 -198 20 -215 50 -10 111 22 111 57 0 12 -28
5 -40 -9 -29 -35 -110 -7 -110 38 0 15 12 17 80 17 44 0 80 3 80 8 0 4 -5 23
-10 43 -18 65 -72 90 -131 61z"/>
<path d="M859 4252 c-83 -41 -68 -198 20 -215 50 -10 111 22 111 57 0 12 -28
5 -40 -9 -29 -35 -110 -7 -110 38 0 15 12 17 80 17 44 0 80 3 80 8 0 4 -5 23
-10 43 -18 65 -72 90 -131 61z"/>
<path d="M1117 4250 c-22 -18 -27 -19 -27 -6 0 9 -8 16 -20 16 -19 0 -20 -7
-20 -115 0 -108 1 -115 20 -115 18 0 20 7 20 81 0 95 10 119 48 119 45 0 52
-16 52 -112 0 -83 1 -88 21 -88 20 0 21 4 17 100 -3 106 -11 123 -58 135 -18
4 -34 0 -53 -15z"/>
<path d="M1353 4263 c-29 -6 -59 -44 -67 -87 -17 -88 53 -161 129 -136 33 11
55 35 55 59 0 18 -24 12 -38 -9 -16 -26 -73 -27 -95 -2 -24 26 -23 104 1 125
23 21 65 22 82 2 15 -19 40 -20 40 -2 0 32 -59 60 -107 50z"/>
<path d="M1559 4252 c-83 -41 -68 -198 20 -215 50 -10 111 22 111 57 0 12 -28
5 -40 -9 -29 -35 -110 -7 -110 38 0 15 12 17 80 17 44 0 80 3 80 8 0 4 -5 23
-10 43 -18 65 -72 90 -131 61z"/>
<path d="M2208 4241 c-30 -26 -32 -34 -33 -91 0 -58 2 -64 34 -92 29 -26 39
-30 75 -25 28 4 49 15 65 33 22 26 22 28 5 35 -12 4 -25 0 -37 -12 -23 -25
-62 -24 -87 1 -40 40 -27 50 61 50 l82 0 -6 38 c-8 47 -55 92 -97 92 -19 0
-42 -11 -62 -29z"/>
<path d="M60 2750 c0 -153 1 -160 20 -160 18 0 20 7 20 75 l0 75 70 0 c63 0
70 2 70 20 0 18 -7 20 -70 20 l-70 0 0 45 0 45 85 0 c78 0 85 2 85 20 0 19 -7
20 -105 20 l-105 0 0 -160z"/>
<path d="M627 2810 c-22 -18 -27 -19 -27 -6 0 9 -8 16 -20 16 -19 0 -20 -7
-20 -115 0 -108 1 -115 20 -115 18 0 20 7 20 81 0 95 10 119 48 119 45 0 52
-16 52 -112 0 -83 1 -88 21 -88 20 0 21 4 17 100 -3 106 -11 123 -58 135 -18
4 -34 0 -53 -15z"/>
<path d="M863 2823 c-29 -6 -59 -44 -67 -87 -17 -88 53 -161 129 -136 33 11
55 35 55 59 0 18 -24 12 -38 -9 -16 -26 -73 -27 -95 -2 -24 26 -23 104 1 125
23 21 65 22 82 2 15 -19 40 -20 40 -2 0 32 -59 60 -107 50z"/>
<path d="M1205 2823 c-53 -13 -84 -84 -65 -151 14 -53 41 -75 90 -75 49 0 76
22 90 75 13 45 -1 107 -27 130 -21 18 -60 27 -88 21z m67 -50 c24 -21 25 -99
1 -125 -20 -22 -61 -23 -85 -1 -24 21 -25 99 -1 125 20 22 61 23 85 1z"/>
<path d="M322 2725 c2 -72 7 -98 20 -111 22 -23 73 -22 98 1 19 18 20 18 20
-3 0 -15 6 -22 20 -22 19 0 20 7 20 115 0 108 -1 115 -20 115 -18 0 -20 -7
-20 -76 0 -90 -10 -114 -48 -114 -44 0 -52 16 -52 107 0 78 -1 83 -21 83 -20
0 -21 -4 -17 -95z"/>
<path d="M60 2250 c0 -153 1 -160 20 -160 18 0 20 7 20 65 l0 65 43 0 c77 0
117 17 134 57 12 31 13 41 1 72 -17 44 -55 60 -150 60 l-68 1 0 -160z m178
108 c16 -16 16 -70 0 -86 -7 -7 -39 -12 -75 -12 l-63 0 0 55 0 55 63 0 c36 0
68 -5 75 -12z"/>
<path d="M680 2323 c-8 -3 -23 -12 -32 -21 -16 -14 -18 -13 -18 1 0 10 -8 17
-20 17 -19 0 -20 -7 -20 -115 0 -108 1 -115 20 -115 18 0 20 7 20 84 0 97 12
119 64 114 l31 -3 3 -97 c2 -90 4 -98 22 -98 18 0 20 7 20 84 0 97 12 119 64
114 l31 -3 3 -97 c3 -91 4 -98 23 -98 20 0 21 5 17 100 -3 107 -11 123 -59
135 -19 5 -34 0 -56 -19 -30 -25 -31 -25 -44 -7 -16 21 -46 32 -69 24z"/>
<path d="M1035 2323 c-26 -7 -55 -33 -55 -50 0 -18 25 -17 40 3 9 10 26 14 49
12 31 -3 36 -7 39 -29 3 -25 0 -27 -49 -34 -35 -5 -60 -15 -76 -31 -27 -27
-29 -42 -8 -71 20 -29 58 -36 100 -18 32 13 37 13 42 0 3 -8 12 -15 20 -15 21
0 15 192 -7 214 -17 18 -65 27 -95 19z"/>
<path d="M1525 2323 c-53 -13 -84 -84 -65 -151 14 -53 41 -75 90 -75 49 0 76
22 90 75 13 45 -1 107 -27 130 -21 18 -60 27 -88 21z m67 -50 c24 -21 25 -99
1 -125 -20 -22 -61 -23 -85 -1 -24 21 -25 99 -1 125 20 22 61 23 85 1z"/>
<path d="M1150 931 c0 -154 1 -161 20 -161 18 0 20 7 20 64 l0 64 70 4 c89 5
115 26 115 93 0 72 -25 89 -135 93 l-90 4 0 -161z m174 103 c21 -20 20 -53 -1
-76 -12 -13 -31 -18 -75 -18 l-58 0 0 55 0 55 59 0 c41 0 65 -5 75 -16z"/>
<path d="M1746 989 c-21 -17 -26 -18 -26 -5 0 9 -8 16 -20 16 -19 0 -20 -7
-20 -115 0 -108 1 -115 20 -115 18 0 20 7 20 83 0 90 13 117 56 117 36 0 44
-20 44 -112 0 -81 2 -88 20 -88 18 0 20 7 20 83 0 90 13 117 56 117 36 0 44
-20 44 -112 0 -81 2 -88 20 -88 19 0 20 7 20 95 0 88 -2 98 -25 120 -29 30
-64 32 -96 6 -23 -19 -24 -19 -48 0 -31 24 -52 24 -85 -2z"/>
<path d="M2088 981 c-30 -26 -32 -34 -33 -91 0 -58 2 -64 34 -92 29 -26 39
-30 75 -25 28 4 49 15 65 33 22 26 22 28 5 35 -12 4 -25 0 -37 -12 -23 -25
-62 -24 -87 1 -40 40 -27 50 61 50 l82 0 -6 38 c-8 47 -55 92 -97 92 -19 0
-42 -11 -62 -29z"/>
<path d="M2578 981 c-31 -27 -33 -34 -33 -91 0 -57 2 -64 33 -91 20 -18 43
-29 62 -29 19 0 42 11 62 29 31 27 33 34 33 91 0 57 -2 64 -33 91 -20 18 -43
29 -62 29 -19 0 -42 -11 -62 -29z m106 -33 c9 -12 16 -38 16 -58 0 -48 -24
-80 -60 -80 -36 0 -60 32 -60 80 0 48 24 80 60 80 18 0 34 -8 44 -22z"/>
<path d="M1230 566 c-5 -14 -26 -65 -46 -113 -78 -190 -76 -183 -54 -183 14 0
24 13 37 50 l18 50 70 0 70 0 18 -50 c13 -37 23 -50 37 -50 19 0 19 1 1 48
-109 272 -129 306 -151 248z"/>
<path d="M2958 566 c-10 -7 -18 -25 -18 -40 0 -16 -5 -26 -15 -26 -8 0 -15 -9
-15 -20 0 -11 7 -20 15 -20 12 0 15 -15 15 -79 0 -88 12 -111 57 -111 19 0 24
4 19 16 -3 9 -6 18 -6 20 0 2 -7 4 -15 4 -12 0 -15 15 -15 75 0 60 3 75 15 75
8 0 15 9 15 20 0 11 -6 20 -14 20 -10 0 -16 13 -18 39 -3 36 -5 38 -20 27z"/>
<path d="M1608 481 c-28 -25 -32 -34 -32 -84 -1 -93 62 -151 125 -115 29 17
29 17 29 -7 0 -13 -7 -31 -16 -39 -19 -20 -68 -21 -83 -2 -16 20 -51 27 -51
11 0 -7 9 -23 19 -36 27 -34 110 -34 143 -1 21 21 23 33 26 157 3 131 3 135
-17 135 -12 0 -21 -5 -21 -11 0 -5 -10 -3 -22 5 -33 24 -64 19 -100 -13z m102
-31 c24 -24 27 -86 4 -118 -20 -30 -68 -30 -88 0 -9 12 -16 38 -16 58 0 71 56
104 100 60z"/>
<path d="M2136 489 c-21 -17 -26 -18 -26 -5 0 9 -8 16 -20 16 -19 0 -20 -7
-20 -115 0 -108 1 -115 20 -115 18 0 20 7 20 83 0 90 13 117 56 117 36 0 44
-20 44 -112 0 -81 2 -88 20 -88 18 0 20 7 20 83 0 90 13 117 56 117 36 0 44
-20 44 -112 0 -81 2 -88 20 -88 19 0 20 7 20 95 0 88 -2 98 -25 120 -29 30
-64 32 -96 6 -23 -19 -24 -19 -48 0 -31 24 -52 24 -85 -2z"/>
<path d="M2478 481 c-30 -26 -32 -34 -33 -91 0 -58 2 -64 34 -92 29 -26 39
-30 75 -25 28 4 49 15 65 33 22 26 22 28 5 35 -12 4 -25 0 -37 -12 -23 -25
-62 -24 -87 1 -40 40 -27 50 61 50 l82 0 -6 38 c-8 47 -55 92 -97 92 -19 0
-42 -11 -62 -29z"/>
<path d="M2750 490 c-16 -16 -20 -17 -20 -5 0 8 -9 15 -20 15 -19 0 -20 -7
-20 -115 0 -108 1 -115 20 -115 18 0 20 7 20 83 0 90 13 117 56 117 36 0 44
-20 44 -112 0 -81 2 -88 20 -88 19 0 20 7 20 95 0 88 -2 98 -25 120 -29 30
-68 32 -95 5z"/>
<path d="M3078 481 c-31 -27 -33 -34 -33 -91 0 -57 2 -64 33 -91 20 -18 43
-29 62 -29 19 0 42 11 62 29 31 27 33 34 33 91 0 57 -2 64 -33 91 -20 18 -43
29 -62 29 -19 0 -42 -11 -62 -29z m106 -33 c9 -12 16 -38 16 -58 0 -48 -24
-80 -60 -80 -36 0 -60 32 -60 80 0 20 7 46 16 58 20 30 68 30 88 0z"/>
<path d="M1830 410 c0 -83 2 -93 25 -115 30 -30 54 -31 89 -4 l26 20 0 -20 c0
-14 6 -21 20 -21 19 0 20 7 20 115 0 108 -1 115 -20 115 -18 0 -20 -7 -20 -78
0 -84 -14 -112 -56 -112 -36 0 -44 20 -44 107 0 76 -2 83 -20 83 -19 0 -20 -7
-20 -90z"/>
</g>
</svg>
