<svg version="1.1" viewBox="0.0 0.0 777.6614173228346 353.0813648293963" fill="none" stroke="none" stroke-linecap="square" stroke-miterlimit="10" xmlns:xlink="http://www.w3.org/1999/xlink" xmlns="http://www.w3.org/2000/svg"><clipPath id="p.0"><path d="m0 0l777.66144 0l0 353.08136l-777.66144 0l0 -353.08136z" clip-rule="nonzero"/></clipPath><g clip-path="url(#p.0)"><path fill="#000000" fill-opacity="0.0" d="m0 0l777.66144 0l0 353.08136l-777.66144 0z" fill-rule="evenodd"/><path fill="#c9daf8" d="m49.669292 32.800526l666.3307 0l0 304.59842l-666.3307 0z" fill-rule="evenodd"/><path stroke="#000000" stroke-width="4.0" stroke-linejoin="round" stroke-linecap="butt" d="m49.669292 32.800526l666.3307 0l0 304.59842l-666.3307 0z" fill-rule="evenodd"/><path fill="#ffff00" d="m323.4672 158.33333l90.92914 0l0 55.433075l-90.92914 0z" fill-rule="evenodd"/><path stroke="#000000" stroke-width="2.0" stroke-linejoin="round" stroke-linecap="butt" d="m323.4672 158.33333l90.92914 0l0 55.433075l-90.92914 0z" fill-rule="evenodd"/><path fill="#000000" d="m361.0472 196.65736l0 -4.875q-0.5 0.65625 -1.25 1.03125q-0.734375 0.375 -1.609375 0.375q-1.640625 0 -2.703125 -1.234375q-1.265625 -1.453125 -1.265625 -3.9375q0 -2.328125 1.171875 -3.625q1.1875 -1.3125 2.9375 -1.3125q0.96875 0 1.671875 0.40625q0.703125 0.40625 1.25 1.234375l0 -1.421875l2.359375 0l0 13.359375l-2.5625 0zm0.09375 -8.640625q0 -1.484375 -0.609375 -2.203125q-0.609375 -0.734375 -1.515625 -0.734375q-0.9375 0 -1.5625 0.75q-0.625 0.734375 -0.625 2.328125q0 1.59375 0.59375 2.3125q0.609375 0.703125 1.5 0.703125q0.875 0 1.546875 -0.796875q0.671875 -0.796875 0.671875 -2.359375zm9.224091 8.875l-1.75 0q-1.390625 -2.09375 -2.125 -4.359375q-0.734375 -2.28125 -0.734375 -4.40625q0 -2.625 0.90625 -4.96875q0.78125 -2.046875 1.984375 -3.765625l1.75 0q-1.25 2.75 -1.71875 4.6875q-0.46875 1.9375 -0.46875 4.109375q0 1.5 0.28125 3.0625q0.28125 1.5625 0.765625 2.96875q0.3125 0.9375 1.109375 2.671875zm5.493927 -3.921875l0 -5.625l-4.890625 -7.734375l3.171875 0l3.140625 5.28125l3.078125 -5.28125l3.109375 0l-4.921875 7.75l0 5.609375l-2.6875 0zm8.209198 3.921875q0.765625 -1.609375 1.0625 -2.484375q0.3125 -0.859375 0.578125 -1.984375q0.265625 -1.140625 0.390625 -2.15625q0.125 -1.015625 0.125 -2.078125q0 -2.171875 -0.46875 -4.109375q-0.453125 -1.9375 -1.703125 -4.6875l1.734375 0q1.375 1.953125 2.140625 4.15625q0.765625 2.1875 0.765625 4.453125q0 1.90625 -0.609375 4.078125q-0.671875 2.4375 -2.25 4.8125l-1.765625 0z" fill-rule="nonzero"/><path fill="#ffff00" d="m531.46716 246.33333l100.59845 0l0 61.417343l-100.59845 0z" fill-rule="evenodd"/><path stroke="#000000" stroke-width="2.0" stroke-linejoin="round" stroke-linecap="butt" d="m531.46716 246.33333l100.59845 0l0 61.417343l-100.59845 0z" fill-rule="evenodd"/><path fill="#000000" d="m572.61414 283.962l-2.5625 0l0 -9.671875l2.375 0l0 1.375q0.609375 -0.984375 1.09375 -1.28125q0.484375 -0.3125 1.109375 -0.3125q0.875 0 1.6875 0.484375l-0.796875 2.234375q-0.640625 -0.421875 -1.203125 -0.421875q-0.53125 0 -0.90625 0.296875q-0.375 0.296875 -0.59375 1.078125q-0.203125 0.765625 -0.203125 3.234375l0 2.984375zm9.041504 3.921875l-1.75 0q-1.390625 -2.09375 -2.125 -4.359375q-0.734375 -2.28125 -0.734375 -4.40625q0 -2.625 0.90625 -4.96875q0.78125 -2.046875 1.984375 -3.765625l1.75 0q-1.25 2.75 -1.71875 4.6875q-0.46875 1.9375 -0.46875 4.109375q0 1.5 0.28125 3.0625q0.28125 1.5625 0.765625 2.96875q0.3125 0.9375 1.109375 2.671875zm0.8377075 -3.921875l0 -2.4375l7.015625 -8.65625l-6.21875 0l0 -2.265625l9.765625 0l0 2.09375l-7.3125 9.015625l7.59375 0l0 2.25l-10.84375 0zm11.81781 3.921875q0.765625 -1.609375 1.0625 -2.484375q0.3125 -0.859375 0.578125 -1.984375q0.265625 -1.140625 0.390625 -2.15625q0.125 -1.015625 0.125 -2.078125q0 -2.171875 -0.46875 -4.109375q-0.453125 -1.9375 -1.703125 -4.6875l1.734375 0q1.375 1.953125 2.140625 4.15625q0.765625 2.1875 0.765625 4.453125q0 1.90625 -0.609375 4.078125q-0.671875 2.4375 -2.25 4.8125l-1.765625 0z" fill-rule="nonzero"/><path fill="#ffff00" d="m107.46719 54.333332l100.59842 0l0 61.417324l-100.59842 0z" fill-rule="evenodd"/><path stroke="#000000" stroke-width="2.0" stroke-linejoin="round" stroke-linecap="butt" d="m107.46719 54.333332l100.59842 0l0 61.417324l-100.59842 0z" fill-rule="evenodd"/><path fill="#000000" d="m143.49123 82.29012l2.390625 0l0 1.421875q0.46875 -0.734375 1.25 -1.1875q0.796875 -0.453125 1.765625 -0.453125q1.6875 0 2.859375 1.328125q1.171875 1.3125 1.171875 3.671875q0 2.421875 -1.1875 3.765625q-1.1875 1.34375 -2.859375 1.34375q-0.8125 0 -1.46875 -0.3125q-0.640625 -0.328125 -1.359375 -1.09375l0 4.875l-2.5625 0l0 -13.359375zm2.53125 4.671875q0 1.625 0.640625 2.40625q0.65625 0.78125 1.578125 0.78125q0.90625 0 1.484375 -0.71875q0.59375 -0.71875 0.59375 -2.34375q0 -1.515625 -0.609375 -2.25q-0.609375 -0.75 -1.515625 -0.75q-0.9375 0 -1.5625 0.734375q-0.609375 0.71875 -0.609375 2.140625zm13.177231 8.921875l-1.75 0q-1.390625 -2.09375 -2.125 -4.359375q-0.734375 -2.28125 -0.734375 -4.40625q0 -2.625 0.90625 -4.96875q0.78125 -2.046875 1.984375 -3.765625l1.75 0q-1.25 2.75 -1.71875 4.6875q-0.46875 1.9375 -0.46875 4.109375q0 1.5 0.28125 3.0625q0.28125 1.5625 0.765625 2.96875q0.3125 0.9375 1.109375 2.671875zm0.634552 -3.921875l4.5625 -6.96875l-4.140625 -6.390625l3.15625 0l2.6875 4.296875l2.609375 -4.296875l3.125 0l-4.140625 6.484375l4.5625 6.875l-3.25 0l-2.96875 -4.625l-2.96875 4.625l-3.234375 0zm13.068573 3.921875q0.765625 -1.609375 1.0625 -2.484375q0.3125 -0.859375 0.578125 -1.984375q0.265625 -1.140625 0.390625 -2.15625q0.125 -1.015625 0.125 -2.078125q0 -2.171875 -0.46875 -4.109375q-0.453125 -1.9375 -1.703125 -4.6875l1.734375 0q1.375 1.953125 2.140625 4.15625q0.765625 2.1875 0.765625 4.453125q0 1.90625 -0.609375 4.078125q-0.671875 2.4375 -2.25 4.8125l-1.765625 0z" fill-rule="nonzero"/><path fill="#000000" fill-opacity="0.0" d="m323.4672 202.04987l-57.795288 0l0 -99.27559l-57.795258 0" fill-rule="evenodd"/><path stroke="#000000" stroke-width="2.0" stroke-linejoin="round" stroke-linecap="butt" d="m323.4672 202.04987l-57.795288 0l0 -99.27559l-50.9411 0" fill-rule="evenodd"/><path fill="#000000" stroke="#000000" stroke-width="2.0" stroke-linecap="butt" d="m214.73082 102.77428l2.2491608 -2.2491684l-6.179535 2.2491684l6.179535 2.2491684z" fill-rule="evenodd"/><path fill="#000000" fill-opacity="0.0" d="m531.46716 298.04987l-57.795258 0l0 -99.27559l-57.795258 0" fill-rule="evenodd"/><path stroke="#000000" stroke-width="2.0" stroke-linejoin="round" stroke-linecap="butt" d="m531.46716 298.04987l-57.795258 0l0 -99.27559l-50.9411 0" fill-rule="evenodd"/><path fill="#000000" stroke="#000000" stroke-width="2.0" stroke-linecap="butt" d="m422.7308 198.77428l2.249176 -2.2491608l-6.179535 2.2491608l6.179535 2.249176z" fill-rule="evenodd"/><path fill="#000000" fill-opacity="0.0" d="m209.41995 64.732285l84.848236 0l0 106.456696l29.482483 0" fill-rule="evenodd"/><path stroke="#000000" stroke-width="2.0" stroke-linejoin="round" stroke-linecap="butt" d="m209.41995 64.732285l84.848236 0l0 106.456696l22.628296 0" fill-rule="evenodd"/><path fill="#000000" stroke="#000000" stroke-width="2.0" stroke-linecap="butt" d="m316.89648 171.18898l-2.249176 2.2491608l6.179535 -2.2491608l-6.179535 -2.249176z" fill-rule="evenodd"/><path fill="#000000" fill-opacity="0.0" d="m417.41995 168.73228l83.02368 0l0 96.755905l30.929047 0" fill-rule="evenodd"/><path stroke="#000000" stroke-width="2.0" stroke-linejoin="round" stroke-linecap="butt" d="m417.41995 168.73228l83.02371 0l0 96.755905l24.07489 0" fill-rule="evenodd"/><path fill="#000000" stroke="#000000" stroke-width="2.0" stroke-linecap="butt" d="m524.51855 265.4882l-2.2492065 2.249176l6.1795654 -2.249176l-6.1795654 -2.249176z" fill-rule="evenodd"/><path fill="#000000" fill-opacity="0.0" d="m29.052494 69.34908l74.96063 0" fill-rule="evenodd"/><path stroke="#000000" stroke-width="2.0" stroke-linejoin="round" stroke-linecap="butt" d="m29.052494 69.34908l62.96063 0" fill-rule="evenodd"/><path fill="#000000" stroke="#000000" stroke-width="2.0" stroke-linecap="butt" d="m92.01312 72.65255l9.076195 -3.3034668l-9.076195 -3.3034668z" fill-rule="evenodd"/><path fill="#000000" fill-opacity="0.0" d="m764.22046 291.4567l-133.07086 -0.94488525" fill-rule="evenodd"/><path stroke="#000000" stroke-width="2.0" stroke-linejoin="round" stroke-linecap="butt" d="m764.22046 291.4567l-121.07117 -0.8596802" fill-rule="evenodd"/><path fill="#000000" stroke="#000000" stroke-width="2.0" stroke-linecap="butt" d="m643.1727 287.29364l-9.099365 3.238922l9.05249 3.3678284z" fill-rule="evenodd"/><path fill="#000000" fill-opacity="0.0" d="m108.71129 105.90026l-34.67717 0.94488525" fill-rule="evenodd"/><path stroke="#000000" stroke-width="2.0" stroke-linejoin="round" stroke-linecap="butt" d="m108.71129 105.90026l-34.67717 0.94488525" fill-rule="evenodd"/><path fill="#000000" fill-opacity="0.0" d="m74.03674 106.83727l0 177.13385" fill-rule="evenodd"/><path stroke="#000000" stroke-width="2.0" stroke-linejoin="round" stroke-linecap="butt" d="m74.03674 106.83727l0 177.13385" fill-rule="evenodd"/><path fill="#000000" fill-opacity="0.0" d="m73.09974 283.02362l-57.165356 0.94488525" fill-rule="evenodd"/><path stroke="#000000" stroke-width="2.0" stroke-linejoin="round" stroke-linecap="butt" d="m73.09974 283.02362l-50.31212 0.831604" fill-rule="evenodd"/><path fill="#000000" stroke="#000000" stroke-width="2.0" stroke-linecap="butt" d="m22.78762 283.85522l2.211689 -2.2860413l-6.1415215 2.3510132l6.215864 2.1467285z" fill-rule="evenodd"/><path fill="#000000" fill-opacity="0.0" d="m632.5827 259.59317l35.62201 0" fill-rule="evenodd"/><path stroke="#000000" stroke-width="2.0" stroke-linejoin="round" stroke-linecap="butt" d="m632.5827 259.59317l35.62201 0" fill-rule="evenodd"/><path fill="#000000" fill-opacity="0.0" d="m665.3832 258.65616l0 -197.73227" fill-rule="evenodd"/><path stroke="#000000" stroke-width="2.0" stroke-linejoin="round" stroke-linecap="butt" d="m665.3832 258.65616l0 -197.73227" fill-rule="evenodd"/><path fill="#000000" fill-opacity="0.0" d="m661.0525 61.349083l86.299194 0.50393677" fill-rule="evenodd"/><path stroke="#000000" stroke-width="2.0" stroke-linejoin="round" stroke-linecap="butt" d="m661.0525 61.349083l74.29944 0.4338646" fill-rule="evenodd"/><path fill="#000000" stroke="#000000" stroke-width="2.0" stroke-linecap="butt" d="m735.33264 65.08636l9.095337 -3.250412l-9.056763 -3.3564072z" fill-rule="evenodd"/><path fill="#ffffff" d="m37.39895 -8.0l350.86615 0l0 30.33071l-350.86615 0z" fill-rule="evenodd"/><path fill="#000000" d="m52.602074 11.500626q0.015625 -0.4375 -0.046875 -0.75q-0.0625 -0.3125 -0.1875 -0.515625q-0.125 -0.203125 -0.3125 -0.296875q-0.1875 -0.09375 -0.4375 -0.09375q-0.421875 0 -0.875 0.34375q-0.4375 0.34375 -0.984375 1.140625l0 5.03125l-1.953125 0l0 -7.9375l1.734375 0l0.0625 1.15625q0.203125 -0.3125 0.4375 -0.546875q0.25 -0.25 0.546875 -0.421875q0.3125 -0.171875 0.671875 -0.265625q0.375 -0.09375 0.8125 -0.09375q0.59375 0 1.0625 0.203125q0.46875 0.203125 0.78125 0.609375q0.3125 0.40625 0.46875 1.03125q0.15625 0.609375 0.125 1.40625l-1.90625 0zm10.59375 0.28125q0 0.1875 -0.015625 0.5q0 0.3125 -0.03125 0.59375l-5.21875 0q0 0.515625 0.15625 0.921875q0.171875 0.390625 0.453125 0.671875q0.296875 0.265625 0.703125 0.40625q0.421875 0.140625 0.921875 0.140625q0.578125 0 1.234375 -0.09375q0.65625 -0.09375 1.375 -0.296875l0 1.515625q-0.3125 0.09375 -0.671875 0.171875q-0.359375 0.0625 -0.734375 0.109375q-0.375 0.0625 -0.765625 0.09375q-0.375 0.03125 -0.734375 0.03125q-0.90625 0 -1.625 -0.265625q-0.71875 -0.265625 -1.21875 -0.765625q-0.5 -0.5 -0.765625 -1.234375q-0.265625 -0.75 -0.265625 -1.734375q0 -0.96875 0.265625 -1.75q0.265625 -0.796875 0.75 -1.359375q0.484375 -0.578125 1.171875 -0.875q0.703125 -0.3125 1.546875 -0.3125q0.84375 0 1.484375 0.265625q0.65625 0.25 1.09375 0.71875q0.4375 0.46875 0.65625 1.125q0.234375 0.640625 0.234375 1.421875zm-1.9375 -0.28125q0.015625 -0.46875 -0.109375 -0.8125q-0.125 -0.34375 -0.34375 -0.5625q-0.21875 -0.234375 -0.5 -0.34375q-0.28125 -0.109375 -0.609375 -0.109375q-0.71875 0 -1.1875 0.484375q-0.453125 0.46875 -0.546875 1.34375l3.296875 0zm9.78125 -1.6875q0.21875 0.265625 0.296875 0.578125q0.09375 0.296875 0.09375 0.609375q0 0.65625 -0.234375 1.171875q-0.21875 0.5 -0.640625 0.84375q-0.421875 0.34375 -1.0 0.53125q-0.578125 0.171875 -1.28125 0.171875q-0.421875 0 -0.78125 -0.078125q-0.34375 -0.09375 -0.515625 -0.203125q-0.140625 0.140625 -0.234375 0.296875q-0.09375 0.15625 -0.09375 0.359375q0 0.125 0.0625 0.25q0.0625 0.125 0.1875 0.234375q0.125 0.09375 0.28125 0.15625q0.171875 0.0625 0.390625 0.0625l1.875 0.078125q0.640625 0.015625 1.140625 0.15625q0.515625 0.140625 0.875 0.40625q0.375 0.265625 0.578125 0.65625q0.203125 0.375 0.203125 0.859375q0 0.5625 -0.25 1.046875q-0.25 0.5 -0.765625 0.859375q-0.5 0.359375 -1.25 0.5625q-0.75 0.21875 -1.734375 0.21875q-0.96875 0 -1.65625 -0.15625q-0.6875 -0.140625 -1.140625 -0.421875q-0.4375 -0.265625 -0.65625 -0.65625q-0.203125 -0.375 -0.203125 -0.828125q0 -0.265625 0.0625 -0.5q0.078125 -0.234375 0.21875 -0.453125q0.140625 -0.21875 0.34375 -0.421875q0.21875 -0.203125 0.515625 -0.40625q-0.390625 -0.21875 -0.59375 -0.5625q-0.1875 -0.34375 -0.1875 -0.734375q0 -0.265625 0.0625 -0.5q0.078125 -0.234375 0.1875 -0.4375q0.109375 -0.21875 0.25 -0.40625q0.15625 -0.203125 0.328125 -0.390625q-0.296875 -0.28125 -0.484375 -0.6875q-0.1875 -0.421875 -0.1875 -1.03125q0 -0.671875 0.234375 -1.1875q0.234375 -0.515625 0.65625 -0.875q0.421875 -0.359375 1.0 -0.53125q0.59375 -0.1875 1.28125 -0.1875q0.34375 0 0.671875 0.03125q0.328125 0.03125 0.59375 0.125l2.75 0l0 1.390625l-1.25 0zm-4.5 7.609375q0 0.453125 0.46875 0.671875q0.46875 0.21875 1.3125 0.21875q0.53125 0 0.90625 -0.109375q0.375 -0.09375 0.609375 -0.265625q0.234375 -0.15625 0.328125 -0.375q0.109375 -0.21875 0.109375 -0.453125q0 -0.203125 -0.109375 -0.359375q-0.09375 -0.140625 -0.265625 -0.234375q-0.171875 -0.09375 -0.421875 -0.15625q-0.234375 -0.046875 -0.515625 -0.0625l-1.6875 -0.03125q-0.21875 0.15625 -0.375 0.296875q-0.140625 0.140625 -0.21875 0.28125q-0.078125 0.140625 -0.109375 0.28125q-0.03125 0.140625 -0.03125 0.296875zm0.328125 -6.375q0 0.625 0.359375 1.0q0.375 0.375 1.046875 0.375q0.34375 0 0.609375 -0.109375q0.265625 -0.125 0.4375 -0.3125q0.171875 -0.203125 0.25 -0.453125q0.09375 -0.265625 0.09375 -0.546875q0 -0.671875 -0.375 -1.03125q-0.375 -0.375 -1.03125 -0.375q-0.359375 0 -0.625 0.125q-0.25 0.109375 -0.421875 0.3125q-0.171875 0.1875 -0.265625 0.453125q-0.078125 0.265625 -0.078125 0.5625zm12.125 0.453125q0.015625 -0.4375 -0.046875 -0.75q-0.0625 -0.3125 -0.1875 -0.515625q-0.125 -0.203125 -0.3125 -0.296875q-0.1875 -0.09375 -0.4375 -0.09375q-0.421875 0 -0.875 0.34375q-0.4375 0.34375 -0.984375 1.140625l0 5.03125l-1.953125 0l0 -7.9375l1.734375 0l0.0625 1.15625q0.203125 -0.3125 0.4375 -0.546875q0.25 -0.25 0.546875 -0.421875q0.3125 -0.171875 0.671875 -0.265625q0.375 -0.09375 0.8125 -0.09375q0.59375 0 1.0625 0.203125q0.46875 0.203125 0.78125 0.609375q0.3125 0.40625 0.46875 1.03125q0.15625 0.609375 0.125 1.40625l-1.90625 0zm8.65625 4.859375l-0.046875 -1.046875q-0.25 0.265625 -0.53125 0.5q-0.265625 0.21875 -0.59375 0.390625q-0.328125 0.15625 -0.71875 0.25q-0.375 0.09375 -0.84375 0.09375q-0.609375 0 -1.078125 -0.1875q-0.453125 -0.1875 -0.765625 -0.5q-0.3125 -0.328125 -0.46875 -0.78125q-0.15625 -0.453125 -0.15625 -1.0q0 -0.5625 0.234375 -1.03125q0.234375 -0.484375 0.71875 -0.828125q0.5 -0.34375 1.21875 -0.53125q0.734375 -0.203125 1.71875 -0.203125l1.046875 0l0 -0.46875q0 -0.3125 -0.09375 -0.546875q-0.078125 -0.25 -0.28125 -0.421875q-0.1875 -0.171875 -0.5 -0.265625q-0.296875 -0.09375 -0.734375 -0.09375q-0.703125 0 -1.390625 0.15625q-0.6875 0.15625 -1.328125 0.453125l0 -1.53125q0.578125 -0.21875 1.3125 -0.359375q0.75 -0.15625 1.5625 -0.15625q0.875 0 1.5 0.171875q0.640625 0.15625 1.046875 0.5q0.421875 0.328125 0.609375 0.84375q0.203125 0.5 0.203125 1.171875l0 5.421875l-1.640625 0zm-0.265625 -3.515625l-1.171875 0q-0.484375 0 -0.828125 0.09375q-0.328125 0.09375 -0.546875 0.265625q-0.203125 0.15625 -0.296875 0.375q-0.09375 0.21875 -0.09375 0.453125q0 0.484375 0.3125 0.75q0.3125 0.25 0.84375 0.25q0.40625 0 0.828125 -0.28125q0.4375 -0.296875 0.953125 -0.84375l0 -1.0625zm8.921875 6.796875q-1.890625 -1.609375 -2.84375 -3.453125q-0.953125 -1.84375 -0.953125 -3.96875q0 -1.1875 0.28125 -2.25q0.28125 -1.0625 0.796875 -1.984375q0.515625 -0.9375 1.21875 -1.75q0.703125 -0.8125 1.546875 -1.53125l1.09375 1.09375q-1.53125 1.359375 -2.296875 2.953125q-0.765625 1.578125 -0.765625 3.328125q0 1.78125 0.765625 3.421875q0.765625 1.640625 2.296875 2.984375l-1.140625 1.15625zm9.171875 -3.28125l-1.96875 -3.765625l-1.9375 3.765625l-2.328125 0l2.953125 -5.234375l-2.75 -4.984375l2.25 0l1.859375 3.5625l1.78125 -3.5625l2.265625 0l-2.734375 4.984375l3.046875 5.234375l-2.4375 0zm4.15625 1.515625q0.46875 0.015625 0.875 -0.0625q0.40625 -0.0625 0.703125 -0.21875q0.296875 -0.15625 0.46875 -0.390625q0.171875 -0.234375 0.171875 -0.546875q0 -0.234375 -0.0625 -0.390625q-0.0625 -0.171875 -0.171875 -0.296875q-0.09375 -0.125 -0.21875 -0.25q-0.109375 -0.125 -0.21875 -0.25q-0.09375 -0.140625 -0.15625 -0.3125q-0.0625 -0.1875 -0.0625 -0.4375q0 -0.234375 0.078125 -0.46875q0.09375 -0.234375 0.25 -0.40625q0.171875 -0.1875 0.40625 -0.296875q0.234375 -0.109375 0.546875 -0.109375q0.375 0 0.671875 0.1875q0.3125 0.171875 0.515625 0.46875q0.21875 0.296875 0.328125 0.6875q0.109375 0.390625 0.109375 0.8125q0 0.71875 -0.265625 1.359375q-0.265625 0.65625 -0.796875 1.125q-0.53125 0.484375 -1.328125 0.75q-0.78125 0.28125 -1.84375 0.28125l0 -1.234375zm12.5 -5.140625l0 3.625l-1.953125 0l0 -3.609375l-3.328125 -6.609375l2.140625 0l1.5 3.15625l0.6875 1.546875l0.6875 -1.59375l1.5625 -3.109375l2.046875 0l-3.34375 6.59375zm5.09375 5.140625q0.46875 0.015625 0.8750076 -0.0625q0.40625 -0.0625 0.703125 -0.21875q0.296875 -0.15625 0.46875 -0.390625q0.171875 -0.234375 0.171875 -0.546875q0 -0.234375 -0.0625 -0.390625q-0.0625 -0.171875 -0.171875 -0.296875q-0.09375 -0.125 -0.21875 -0.25q-0.109375 -0.125 -0.21875 -0.25q-0.09375 -0.140625 -0.15625 -0.3125q-0.0625 -0.1875 -0.0625 -0.4375q0 -0.234375 0.078125 -0.46875q0.09375 -0.234375 0.25 -0.40625q0.171875 -0.1875 0.40625 -0.296875q0.234375 -0.109375 0.546875 -0.109375q0.375 0 0.671875 0.1875q0.3125 0.171875 0.515625 0.46875q0.21875 0.296875 0.328125 0.6875q0.109375 0.390625 0.109375 0.8125q0 0.71875 -0.265625 1.359375q-0.265625 0.65625 -0.796875 1.125q-0.53125 0.484375 -1.328125 0.75q-0.78125 0.28125 -1.8437576 0.28125l0 -1.234375zm7.9531326 -1.515625l0 -1.453125l4.671875 -7.015625l-4.515625 0l0 -1.75l6.953125 0l0 1.5625l-4.703125 6.90625l4.765625 0l0 1.75l-7.171875 0zm10.90625 -11.65625q1.90625 1.59375 2.84375 3.453125q0.9375 1.84375 0.9375 3.96875q0 1.1875 -0.28125 2.25q-0.28125 1.046875 -0.78125 1.984375q-0.5 0.953125 -1.203125 1.765625q-0.703125 0.8125 -1.546875 1.515625l-1.09375 -1.078125q1.53125 -1.375 2.296875 -2.96875q0.765625 -1.59375 0.765625 -3.34375q0 -1.765625 -0.765625 -3.40625q-0.765625 -1.640625 -2.296875 -3.0l1.125 -1.140625zm15.71875 6.609375l0 -1.515625l6.71875 0l0 1.515625l-6.71875 0zm0 3.078125l0 -1.515625l6.71875 0l0 1.515625l-6.71875 0zm10.484375 -6.71875l5.265625 4.421875l-5.265625 4.453125l-1.203125 -1.25l3.859375 -3.1875l-3.859375 -3.203125l1.203125 -1.234375zm23.09375 4.578125q0 1.09375 -0.3125 1.890625q-0.3125 0.796875 -0.859375 1.328125q-0.546875 0.515625 -1.296875 0.78125q-0.75 0.25 -1.640625 0.25q-0.296875 0 -0.59375 -0.046875q-0.296875 -0.03125 -0.53125 -0.09375l0 3.109375l-1.90625 0l0 -11.046875l1.640625 0l0.046875 1.171875q0.25 -0.3125 0.5 -0.5625q0.265625 -0.25 0.5625 -0.421875q0.3125 -0.171875 0.65625 -0.265625q0.359375 -0.09375 0.796875 -0.09375q0.703125 0 1.25 0.28125q0.546875 0.28125 0.921875 0.796875q0.375 0.515625 0.5625 1.265625q0.203125 0.734375 0.203125 1.65625zm-2.0 0.078125q0 -0.65625 -0.09375 -1.109375q-0.09375 -0.46875 -0.28125 -0.765625q-0.171875 -0.296875 -0.421875 -0.4375q-0.25 -0.140625 -0.578125 -0.140625q-0.484375 0 -0.9375 0.390625q-0.4375 0.390625 -0.921875 1.0625l0 3.46875q0.21875 0.09375 0.546875 0.15625q0.34375 0.046875 0.6875 0.046875q0.453125 0 0.8125 -0.1875q0.375 -0.1875 0.640625 -0.53125q0.265625 -0.34375 0.40625 -0.84375q0.140625 -0.5 0.140625 -1.109375zm8.484375 7.3125q-1.890625 -1.609375 -2.84375 -3.453125q-0.953125 -1.84375 -0.953125 -3.96875q0 -1.1875 0.28125 -2.25q0.28125 -1.0625 0.796875 -1.984375q0.515625 -0.9375 1.21875 -1.75q0.703125 -0.8125 1.546875 -1.53125l1.09375 1.09375q-1.53125 1.359375 -2.296875 2.953125q-0.765625 1.578125 -0.765625 3.328125q0 1.78125 0.765625 3.421875q0.765625 1.640625 2.296875 2.984375l-1.140625 1.15625zm9.171875 -3.28125l-1.96875 -3.765625l-1.9375 3.765625l-2.328125 0l2.953125 -5.234375l-2.75 -4.984375l2.25 0l1.859375 3.5625l1.78125 -3.5625l2.265625 0l-2.734375 4.984375l3.046875 5.234375l-2.4375 0zm5.421875 -11.65625q1.90625 1.59375 2.84375 3.453125q0.9375 1.84375 0.9375 3.96875q0 1.1875 -0.28125 2.25q-0.28125 1.046875 -0.78125 1.984375q-0.5 0.953125 -1.203125 1.765625q-0.703125 0.8125 -1.546875 1.515625l-1.09375 -1.078125q1.53125 -1.375 2.296875 -2.96875q0.765625 -1.59375 0.765625 -3.34375q0 -1.765625 -0.765625 -3.40625q-0.765625 -1.640625 -2.296875 -3.0l1.125 -1.140625zm7.53125 13.171875q0.46875 0.015625 0.875 -0.0625q0.40625 -0.0625 0.703125 -0.21875q0.296875 -0.15625 0.46875 -0.390625q0.171875 -0.234375 0.171875 -0.546875q0 -0.234375 -0.0625 -0.390625q-0.0625 -0.171875 -0.171875 -0.296875q-0.09375 -0.125 -0.21875 -0.25q-0.109375 -0.125 -0.21875 -0.25q-0.09375 -0.140625 -0.15625 -0.3125q-0.0625 -0.1875 -0.0625 -0.4375q0 -0.234375 0.078125 -0.46875q0.09375 -0.234375 0.25 -0.40625q0.171875 -0.1875 0.40625 -0.296875q0.234375 -0.109375 0.546875 -0.109375q0.375 0 0.671875 0.1875q0.3125 0.171875 0.515625 0.46875q0.21875 0.296875 0.328125 0.6875q0.109375 0.390625 0.109375 0.8125q0 0.71875 -0.265625 1.359375q-0.265625 0.65625 -0.796875 1.125q-0.53125 0.484375 -1.328125 0.75q-0.78125 0.28125 -1.84375 0.28125l0 -1.234375zm21.765625 1.59375l0 -2.609375l0.078125 -1.5625q-0.21875 0.28125 -0.46875 0.515625q-0.234375 0.21875 -0.53125 0.390625q-0.296875 0.15625 -0.640625 0.25q-0.34375 0.09375 -0.734375 0.09375q-0.703125 0 -1.25 -0.28125q-0.546875 -0.296875 -0.921875 -0.8125q-0.375 -0.515625 -0.578125 -1.25q-0.1875 -0.75 -0.1875 -1.671875q0 -0.9375 0.25 -1.71875q0.265625 -0.796875 0.78125 -1.359375q0.515625 -0.5625 1.28125 -0.859375q0.765625 -0.3125 1.78125 -0.3125q0.203125 0 0.4375 0.03125q0.234375 0.015625 0.46875 0.046875q0.234375 0.03125 0.4375 0.09375q0.21875 0.046875 0.390625 0.09375l1.3125 -0.28125l0 11.203125l-1.90625 0zm-3.234375 -7.015625q0 0.65625 0.09375 1.125q0.09375 0.453125 0.265625 0.75q0.171875 0.296875 0.421875 0.4375q0.265625 0.140625 0.59375 0.140625q0.484375 0 0.921875 -0.390625q0.4375 -0.390625 0.9375 -1.078125l0 -3.46875q-0.234375 -0.078125 -0.5625 -0.125q-0.328125 -0.0625 -0.671875 -0.0625q-0.453125 0 -0.828125 0.1875q-0.359375 0.1875 -0.625 0.53125q-0.265625 0.34375 -0.40625 0.84375q-0.140625 0.484375 -0.140625 1.109375zm12.125 7.1875q-1.890625 -1.609375 -2.84375 -3.453125q-0.953125 -1.84375 -0.953125 -3.96875q0 -1.1875 0.28125 -2.25q0.28125 -1.0625 0.796875 -1.984375q0.515625 -0.9375 1.21875 -1.75q0.703125 -0.8125 1.546875 -1.53125l1.09375 1.09375q-1.53125 1.359375 -2.296875 2.953125q-0.765625 1.578125 -0.765625 3.328125q0 1.78125 0.765625 3.421875q0.765625 1.640625 2.296875 2.984375l-1.140625 1.15625zm8.234375 -6.90625l0 3.625l-1.953125 0l0 -3.609375l-3.328125 -6.609375l2.140625 0l1.5 3.15625l0.6875 1.546875l0.6875 -1.59375l1.5625 -3.109375l2.046875 0l-3.34375 6.59375zm6.359375 -8.03125q1.90625 1.59375 2.84375 3.453125q0.9375 1.84375 0.9375 3.96875q0 1.1875 -0.28125 2.25q-0.28125 1.046875 -0.78125 1.984375q-0.5 0.953125 -1.203125 1.765625q-0.703125 0.8125 -1.546875 1.515625l-1.09375 -1.078125q1.53125 -1.375 2.296875 -2.96875q0.765625 -1.59375 0.765625 -3.34375q0 -1.765625 -0.765625 -3.40625q-0.765625 -1.640625 -2.296875 -3.0l1.125 -1.140625zm7.53125 13.171875q0.46875 0.015625 0.875 -0.0625q0.40625 -0.0625 0.703125 -0.21875q0.296875 -0.15625 0.46875 -0.390625q0.171875 -0.234375 0.171875 -0.546875q0 -0.234375 -0.0625 -0.390625q-0.0625 -0.171875 -0.171875 -0.296875q-0.09375 -0.125 -0.21875 -0.25q-0.109375 -0.125 -0.21875 -0.25q-0.09375 -0.140625 -0.15625 -0.3125q-0.0625 -0.1875 -0.0625 -0.4375q0 -0.234375 0.078125 -0.46875q0.09375 -0.234375 0.25 -0.40625q0.171875 -0.1875 0.40625 -0.296875q0.234375 -0.109375 0.546875 -0.109375q0.375 0 0.671875 0.1875q0.3125 0.171875 0.515625 0.46875q0.21875 0.296875 0.328125 0.6875q0.109375 0.390625 0.109375 0.8125q0 0.71875 -0.265625 1.359375q-0.265625 0.65625 -0.796875 1.125q-0.53125 0.484375 -1.328125 0.75q-0.78125 0.28125 -1.84375 0.28125l0 -1.234375zm22.140625 -6.375q0.015625 -0.4375 -0.046875 -0.75q-0.0625 -0.3125 -0.1875 -0.515625q-0.125 -0.203125 -0.3125 -0.296875q-0.1875 -0.09375 -0.4375 -0.09375q-0.421875 0 -0.875 0.34375q-0.4375 0.34375 -0.984375 1.140625l0 5.03125l-1.953125 0l0 -7.9375l1.734375 0l0.0625 1.15625q0.203125 -0.3125 0.4375 -0.546875q0.25 -0.25 0.546875 -0.421875q0.3125 -0.171875 0.671875 -0.265625q0.375 -0.09375 0.8125 -0.09375q0.59375 0 1.0625 0.203125q0.46875 0.203125 0.78125 0.609375q0.3125 0.40625 0.46875 1.03125q0.15625 0.609375 0.125 1.40625l-1.90625 0zm8.515625 8.140625q-1.890625 -1.609375 -2.84375 -3.453125q-0.953125 -1.84375 -0.953125 -3.96875q0 -1.1875 0.28125 -2.25q0.28125 -1.0625 0.796875 -1.984375q0.515625 -0.9375 1.21875 -1.75q0.703125 -0.8125 1.546875 -1.53125l1.09375 1.09375q-1.53125 1.359375 -2.296875 2.953125q-0.765625 1.578125 -0.765625 3.328125q0 1.78125 0.765625 3.421875q0.765625 1.640625 2.296875 2.984375l-1.140625 1.15625zm3.6875 -3.28125l0 -1.453125l4.671875 -7.015625l-4.515625 0l0 -1.75l6.953125 0l0 1.5625l-4.703125 6.90625l4.765625 0l0 1.75l-7.171875 0zm10.90625 -11.65625q1.90625 1.59375 2.84375 3.453125q0.9375 1.84375 0.9375 3.96875q0 1.1875 -0.28125 2.25q-0.28125 1.046875 -0.78125 1.984375q-0.5 0.953125 -1.203125 1.765625q-0.703125 0.8125 -1.546875 1.515625l-1.09375 -1.078125q1.53125 -1.375 2.296875 -2.96875q0.765625 -1.59375 0.765625 -3.34375q0 -1.765625 -0.765625 -3.40625q-0.765625 -1.640625 -2.296875 -3.0l1.125 -1.140625zm10.234375 8.765625q0.328125 0 0.609375 0.125q0.28125 0.125 0.484375 0.328125q0.203125 0.203125 0.3125 0.484375q0.125 0.28125 0.125 0.609375q0 0.3125 -0.125 0.59375q-0.109375 0.265625 -0.3125 0.484375q-0.203125 0.203125 -0.484375 0.328125q-0.28125 0.125 -0.609375 0.125q-0.3125 0 -0.59375 -0.125q-0.265625 -0.125 -0.46875 -0.328125q-0.203125 -0.21875 -0.328125 -0.484375q-0.109375 -0.28125 -0.109375 -0.59375q0 -0.328125 0.109375 -0.609375q0.125 -0.28125 0.328125 -0.484375q0.203125 -0.203125 0.46875 -0.328125q0.28125 -0.125 0.59375 -0.125z" fill-rule="nonzero"/><path fill="#000000" fill-opacity="0.0" d="m718.2598 259.4042l64.22046 0l0 39.338562l-64.22046 0z" fill-rule="evenodd"/><path fill="#ff00ff" d="m731.0567 286.3242l-2.5625 0l0 -9.671875l2.375 0l0 1.375q0.609375 -0.984375 1.09375 -1.28125q0.484375 -0.3125 1.109375 -0.3125q0.875 0 1.6875 0.484375l-0.796875 2.234375q-0.640625 -0.421875 -1.203125 -0.421875q-0.53125 0 -0.90625 0.296875q-0.375 0.296875 -0.59375 1.078125q-0.203125 0.765625 -0.203125 3.234375l0 2.984375zm10.40094 -3.078125l2.546875 0.421875q-0.484375 1.40625 -1.546875 2.140625q-1.0625 0.734375 -2.65625 0.734375q-2.515625 0 -3.734375 -1.65625q-0.953125 -1.3125 -0.953125 -3.328125q0 -2.40625 1.25 -3.765625q1.265625 -1.359375 3.1875 -1.359375q2.15625 0 3.40625 1.421875q1.25 1.421875 1.1875 4.375l-6.40625 0q0.03125 1.140625 0.609375 1.78125q0.59375 0.625 1.484375 0.625q0.59375 0 1.0 -0.328125q0.421875 -0.328125 0.625 -1.0625zm0.15625 -2.59375q-0.03125 -1.109375 -0.578125 -1.6875q-0.546875 -0.578125 -1.328125 -0.578125q-0.84375 0 -1.390625 0.609375q-0.546875 0.609375 -0.53125 1.65625l3.828125 0zm13.500671 5.671875l-2.390625 0l0 -1.421875q-0.59375 0.828125 -1.40625 1.234375q-0.796875 0.40625 -1.609375 0.40625q-1.671875 0 -2.859375 -1.34375q-1.1875 -1.34375 -1.1875 -3.75q0 -2.453125 1.15625 -3.734375q1.15625 -1.28125 2.921875 -1.28125q1.625 0 2.8125 1.34375l0 -4.8125l2.5625 0l0 13.359375zm-6.84375 -5.046875q0 1.546875 0.4375 2.234375q0.609375 1.015625 1.71875 1.015625q0.890625 0 1.5 -0.75q0.625 -0.765625 0.625 -2.25q0 -1.671875 -0.609375 -2.40625q-0.59375 -0.734375 -1.53125 -0.734375q-0.90625 0 -1.53125 0.734375q-0.609375 0.71875 -0.609375 2.15625zm8.770996 0.078125q0 -1.28125 0.625 -2.46875q0.625 -1.203125 1.78125 -1.828125q1.15625 -0.625 2.578125 -0.625q2.1875 0 3.59375 1.421875q1.40625 1.421875 1.40625 3.609375q0 2.1875 -1.421875 3.640625q-1.421875 1.4375 -3.5625 1.4375q-1.328125 0 -2.546875 -0.59375q-1.203125 -0.609375 -1.828125 -1.765625q-0.625 -1.171875 -0.625 -2.828125zm2.625 0.125q0 1.453125 0.671875 2.21875q0.6875 0.75 1.6875 0.75q1.0 0 1.671875 -0.75q0.6875 -0.765625 0.6875 -2.234375q0 -1.421875 -0.6875 -2.1875q-0.671875 -0.765625 -1.671875 -0.765625q-1.0 0 -1.6875 0.765625q-0.671875 0.765625 -0.671875 2.203125z" fill-rule="nonzero"/><path fill="#000000" fill-opacity="0.0" d="m412.12598 192.60892l64.22049 0l0 39.338593l-64.22049 0z" fill-rule="evenodd"/><path fill="#ff00ff" d="m424.92285 219.52892l-2.5625 0l0 -9.671875l2.375 0l0 1.375q0.609375 -0.984375 1.09375 -1.28125q0.484375 -0.3125 1.109375 -0.3125q0.875 0 1.6875 0.484375l-0.796875 2.234375q-0.640625 -0.421875 -1.203125 -0.421875q-0.53125 0 -0.90625 0.296875q-0.375 0.296875 -0.59375 1.078125q-0.203125 0.765625 -0.203125 3.234375l0 2.984375zm10.400909 -3.078125l2.546875 0.421875q-0.484375 1.40625 -1.546875 2.140625q-1.0625 0.734375 -2.65625 0.734375q-2.515625 0 -3.734375 -1.65625q-0.953125 -1.3125 -0.953125 -3.328125q0 -2.40625 1.25 -3.765625q1.265625 -1.359375 3.1875 -1.359375q2.15625 0 3.40625 1.421875q1.25 1.421875 1.1875 4.375l-6.40625 0q0.03125 1.140625 0.609375 1.78125q0.59375 0.625 1.484375 0.625q0.59375 0 1.0 -0.328125q0.421875 -0.328125 0.625 -1.0625zm0.15625 -2.59375q-0.03125 -1.109375 -0.578125 -1.6875q-0.546875 -0.578125 -1.328125 -0.578125q-0.84375 0 -1.390625 0.609375q-0.546875 0.609375 -0.53125 1.65625l3.828125 0zm13.500702 5.671875l-2.390625 0l0 -1.421875q-0.59375 0.828125 -1.40625 1.234375q-0.796875 0.40625 -1.609375 0.40625q-1.671875 0 -2.859375 -1.34375q-1.1875 -1.34375 -1.1875 -3.75q0 -2.453125 1.15625 -3.734375q1.15625 -1.28125 2.921875 -1.28125q1.625 0 2.8125 1.34375l0 -4.8125l2.5625 0l0 13.359375zm-6.84375 -5.046875q0 1.546875 0.4375 2.234375q0.609375 1.015625 1.71875 1.015625q0.890625 0 1.5 -0.75q0.625 -0.765625 0.625 -2.25q0 -1.671875 -0.609375 -2.40625q-0.59375 -0.734375 -1.53125 -0.734375q-0.90625 0 -1.53125 0.734375q-0.609375 0.71875 -0.609375 2.15625zm8.770996 0.078125q0 -1.28125 0.625 -2.46875q0.625 -1.203125 1.78125 -1.828125q1.15625 -0.625 2.578125 -0.625q2.1875 0 3.59375 1.421875q1.40625 1.421875 1.40625 3.609375q0 2.1875 -1.421875 3.640625q-1.421875 1.4375 -3.5625 1.4375q-1.328125 0 -2.546875 -0.59375q-1.203125 -0.609375 -1.828125 -1.765625q-0.625 -1.171875 -0.625 -2.828125zm2.625 0.125q0 1.453125 0.671875 2.21875q0.6875 0.75 1.6875 0.75q1.0 0 1.671875 -0.75q0.6875 -0.765625 0.6875 -2.234375q0 -1.421875 -0.6875 -2.1875q-0.671875 -0.765625 -1.671875 -0.765625q-1.0 0 -1.6875 0.765625q-0.671875 0.765625 -0.671875 2.203125z" fill-rule="nonzero"/><path fill="#000000" fill-opacity="0.0" d="m206.25984 91.4042l64.220474 0l0 39.338585l-64.220474 0z" fill-rule="evenodd"/><path fill="#ff00ff" d="m219.05672 118.324196l-2.5625 0l0 -9.671875l2.375 0l0 1.375q0.609375 -0.984375 1.09375 -1.28125q0.484375 -0.3125 1.109375 -0.3125q0.875 0 1.6875 0.484375l-0.796875 2.234375q-0.640625 -0.421875 -1.203125 -0.421875q-0.53125 0 -0.90625 0.296875q-0.375 0.296875 -0.59375 1.078125q-0.203125 0.765625 -0.203125 3.234375l0 2.984375zm10.400894 -3.078125l2.546875 0.421875q-0.484375 1.40625 -1.546875 2.140625q-1.0625 0.734375 -2.65625 0.734375q-2.515625 0 -3.734375 -1.65625q-0.953125 -1.3125 -0.953125 -3.328125q0 -2.40625 1.25 -3.765625q1.265625 -1.359375 3.1875 -1.359375q2.15625 0 3.40625 1.421875q1.25 1.421875 1.1875 4.375l-6.40625 0q0.03125 1.140625 0.609375 1.78125q0.59375 0.625 1.484375 0.625q0.59375 0 1.0 -0.328125q0.421875 -0.328125 0.625 -1.0625zm0.15625 -2.59375q-0.03125 -1.109375 -0.578125 -1.6875q-0.546875 -0.578125 -1.328125 -0.578125q-0.84375 0 -1.390625 0.609375q-0.546875 0.609375 -0.53125 1.65625l3.828125 0zm13.500717 5.671875l-2.390625 0l0 -1.421875q-0.59375 0.828125 -1.40625 1.234375q-0.796875 0.40625 -1.609375 0.40625q-1.671875 0 -2.859375 -1.34375q-1.1875 -1.34375 -1.1875 -3.75q0 -2.453125 1.15625 -3.734375q1.15625 -1.28125 2.921875 -1.28125q1.625 0 2.8125 1.34375l0 -4.8125l2.5625 0l0 13.359375zm-6.84375 -5.046875q0 1.546875 0.4375 2.234375q0.609375 1.015625 1.71875 1.015625q0.890625 0 1.5 -0.75q0.625 -0.765625 0.625 -2.25q0 -1.671875 -0.609375 -2.40625q-0.59375 -0.734375 -1.53125 -0.734375q-0.90625 0 -1.53125 0.734375q-0.609375 0.71875 -0.609375 2.15625zm8.770981 0.078125q0 -1.28125 0.625 -2.46875q0.625 -1.203125 1.78125 -1.828125q1.15625 -0.625 2.578125 -0.625q2.1875 0 3.59375 1.421875q1.40625 1.421875 1.40625 3.609375q0 2.1875 -1.421875 3.640625q-1.421875 1.4375 -3.5625 1.4375q-1.328125 0 -2.546875 -0.59375q-1.203125 -0.609375 -1.828125 -1.765625q-0.625 -1.171875 -0.625 -2.828125zm2.625 0.125q0 1.453125 0.671875 2.21875q0.6875 0.75 1.6875 0.75q1.0 0 1.671875 -0.75q0.6875 -0.765625 0.6875 -2.234375q0 -1.421875 -0.6875 -2.1875q-0.671875 -0.765625 -1.671875 -0.765625q-1.0 0 -1.6875 0.765625q-0.671875 0.765625 -0.671875 2.203125z" fill-rule="nonzero"/><path fill="#000000" fill-opacity="0.0" d="m46.6168 35.14173l64.220474 0l0 30.330711l-64.220474 0z" fill-rule="evenodd"/><path fill="#000000" d="m65.39805 55.24923l-2.53125 0.453125q-0.125 -0.75 -0.578125 -1.125q-0.453125 -0.390625 -1.171875 -0.390625q-0.953125 0 -1.53125 0.65625q-0.5625 0.65625 -0.5625 2.203125q0 1.734375 0.578125 2.4375q0.578125 0.703125 1.546875 0.703125q0.734375 0 1.203125 -0.40625q0.46875 -0.421875 0.65625 -1.421875l2.515625 0.421875q-0.390625 1.734375 -1.515625 2.625q-1.109375 0.875 -2.96875 0.875q-2.125 0 -3.390625 -1.328125q-1.25 -1.34375 -1.25 -3.71875q0 -2.390625 1.265625 -3.71875q1.265625 -1.34375 3.421875 -1.34375q1.765625 0 2.796875 0.765625q1.046875 0.75 1.515625 2.3125zm3.8444672 0.09375l-2.328125 -0.421875q0.40625 -1.40625 1.359375 -2.078125q0.953125 -0.671875 2.84375 -0.671875q1.703125 0 2.546875 0.40625q0.84375 0.40625 1.171875 1.03125q0.34375 0.625 0.34375 2.28125l-0.015625 3.0q0 1.265625 0.109375 1.875q0.125 0.609375 0.46875 1.296875l-2.53125 0q-0.109375 -0.25 -0.25 -0.75q-0.0625 -0.234375 -0.09375 -0.3125q-0.65625 0.640625 -1.40625 0.96875q-0.734375 0.3125 -1.59375 0.3125q-1.484375 0 -2.34375 -0.8125q-0.859375 -0.8125 -0.859375 -2.046875q0 -0.828125 0.390625 -1.46875q0.390625 -0.640625 1.09375 -0.96875q0.703125 -0.34375 2.03125 -0.609375q1.796875 -0.328125 2.484375 -0.625l0 -0.25q0 -0.75 -0.359375 -1.0625q-0.359375 -0.3125 -1.375 -0.3125q-0.6875 0 -1.078125 0.28125q-0.375 0.265625 -0.609375 0.9375zm3.421875 2.078125q-0.484375 0.15625 -1.5625 0.390625q-1.0625 0.21875 -1.390625 0.4375q-0.5 0.359375 -0.5 0.90625q0 0.53125 0.40625 0.9375q0.40625 0.390625 1.015625 0.390625q0.703125 0 1.328125 -0.46875q0.46875 -0.34375 0.609375 -0.84375q0.09375 -0.328125 0.09375 -1.25l0 -0.5zm5.047592 4.640625l0 -13.359375l2.5625 0l0 13.359375l-2.5625 0zm5.183304 0l0 -13.359375l2.5625 0l0 13.359375l-2.5625 0z" fill-rule="nonzero"/><path fill="#000000" fill-opacity="0.0" d="m286.6168 123.14173l64.22049 0l0 30.330711l-64.22049 0z" fill-rule="evenodd"/><path fill="#000000" d="m305.39804 143.24924l-2.53125 0.453125q-0.125 -0.75 -0.578125 -1.125q-0.453125 -0.390625 -1.171875 -0.390625q-0.953125 0 -1.53125 0.65625q-0.5625 0.65625 -0.5625 2.203125q0 1.734375 0.578125 2.4375q0.578125 0.703125 1.546875 0.703125q0.734375 0 1.203125 -0.40625q0.46875 -0.421875 0.65625 -1.421875l2.515625 0.421875q-0.390625 1.734375 -1.515625 2.625q-1.109375 0.875 -2.96875 0.875q-2.125 0 -3.390625 -1.328125q-1.25 -1.34375 -1.25 -3.71875q0 -2.390625 1.265625 -3.71875q1.265625 -1.34375 3.421875 -1.34375q1.765625 0 2.796875 0.765625q1.046875 0.75 1.515625 2.3125zm3.8444824 0.09375l-2.328125 -0.421875q0.40625 -1.40625 1.359375 -2.078125q0.953125 -0.671875 2.84375 -0.671875q1.703125 0 2.546875 0.40625q0.84375 0.40625 1.171875 1.03125q0.34375 0.625 0.34375 2.28125l-0.015625 3.0q0 1.265625 0.109375 1.875q0.125 0.609375 0.46875 1.296875l-2.53125 0q-0.109375 -0.25 -0.25 -0.75q-0.0625 -0.234375 -0.09375 -0.3125q-0.65625 0.640625 -1.40625 0.96875q-0.734375 0.3125 -1.59375 0.3125q-1.484375 0 -2.34375 -0.8125q-0.859375 -0.8125 -0.859375 -2.046875q0 -0.828125 0.390625 -1.46875q0.390625 -0.640625 1.09375 -0.96875q0.703125 -0.34375 2.03125 -0.609375q1.796875 -0.328125 2.484375 -0.625l0 -0.25q0 -0.75 -0.359375 -1.0625q-0.359375 -0.3125 -1.375 -0.3125q-0.6875 0 -1.078125 0.28125q-0.375 0.265625 -0.609375 0.9375zm3.421875 2.078125q-0.484375 0.15625 -1.5625 0.390625q-1.0625 0.21875 -1.390625 0.4375q-0.5 0.359375 -0.5 0.90625q0 0.53125 0.40625 0.9375q0.40625 0.390625 1.015625 0.390625q0.703125 0 1.328125 -0.46875q0.46875 -0.34375 0.609375 -0.84375q0.09375 -0.328125 0.09375 -1.25l0 -0.5zm5.047577 4.640625l0 -13.359375l2.5625 0l0 13.359375l-2.5625 0zm5.183319 0l0 -13.359375l2.5625 0l0 13.359375l-2.5625 0z" fill-rule="nonzero"/><path fill="#000000" fill-opacity="0.0" d="m494.6168 211.14174l64.22049 0l0 30.330704l-64.22049 0z" fill-rule="evenodd"/><path fill="#000000" d="m513.3981 231.24924l-2.5312805 0.453125q-0.125 -0.75 -0.578125 -1.125q-0.453125 -0.390625 -1.171875 -0.390625q-0.953125 0 -1.53125 0.65625q-0.5625 0.65625 -0.5625 2.203125q0 1.734375 0.578125 2.4375q0.578125 0.703125 1.546875 0.703125q0.734375 0 1.203125 -0.40625q0.46875 -0.421875 0.65625 -1.421875l2.5156555 0.421875q-0.390625 1.734375 -1.515625 2.625q-1.1094055 0.875 -2.9687805 0.875q-2.125 0 -3.390625 -1.328125q-1.25 -1.34375 -1.25 -3.71875q0 -2.390625 1.265625 -3.71875q1.265625 -1.34375 3.421875 -1.34375q1.765625 0 2.796875 0.765625q1.0469055 0.75 1.5156555 2.3125zm3.8444214 0.09375l-2.328125 -0.421875q0.40625 -1.40625 1.359375 -2.078125q0.953125 -0.671875 2.84375 -0.671875q1.703125 0 2.546875 0.40625q0.84375 0.40625 1.171875 1.03125q0.34375 0.625 0.34375 2.28125l-0.015625 3.0q0 1.265625 0.109375 1.875q0.125 0.609375 0.46875 1.296875l-2.53125 0q-0.109375 -0.25 -0.25 -0.75q-0.0625 -0.234375 -0.09375 -0.3125q-0.65625 0.640625 -1.40625 0.96875q-0.734375 0.3125 -1.59375 0.3125q-1.484375 0 -2.34375 -0.8125q-0.859375 -0.8125 -0.859375 -2.046875q0 -0.828125 0.390625 -1.46875q0.390625 -0.640625 1.09375 -0.96875q0.703125 -0.34375 2.03125 -0.609375q1.796875 -0.328125 2.484375 -0.625l0 -0.25q0 -0.75 -0.359375 -1.0625q-0.359375 -0.3125 -1.375 -0.3125q-0.6875 0 -1.078125 0.28125q-0.375 0.265625 -0.609375 0.9375zm3.421875 2.078125q-0.484375 0.15625 -1.5625 0.390625q-1.0625 0.21875 -1.390625 0.4375q-0.5 0.359375 -0.5 0.90625q0 0.53125 0.40625 0.9375q0.40625 0.390625 1.015625 0.390625q0.703125 0 1.328125 -0.46875q0.46875 -0.34375 0.609375 -0.84375q0.09375 -0.328125 0.09375 -1.25l0 -0.5zm5.0476074 4.640625l0 -13.359375l2.5625 0l0 13.359375l-2.5625 0zm5.1832886 0l0 -13.359375l2.5625 0l0 13.359375l-2.5625 0z" fill-rule="nonzero"/><path fill="#000000" fill-opacity="0.0" d="m488.10236 293.11285l57.165344 0l0 30.330719l-57.165344 0z" fill-rule="evenodd"/><path fill="#ff0000" d="m497.3211 310.361l1.421875 0l0 -0.734375q0 -1.21875 0.25 -1.8125q0.265625 -0.609375 0.953125 -0.984375q0.703125 -0.375 1.78125 -0.375q1.09375 0 2.140625 0.328125l-0.359375 1.78125q-0.609375 -0.140625 -1.171875 -0.140625q-0.546875 0 -0.796875 0.265625q-0.234375 0.25 -0.234375 0.984375l0 0.6875l1.90625 0l0 2.015625l-1.90625 0l0 7.65625l-2.5625 0l0 -7.65625l-1.421875 0l0 -2.015625zm9.243927 2.953125l-2.328125 -0.421875q0.40625 -1.40625 1.359375 -2.078125q0.953125 -0.671875 2.84375 -0.671875q1.703125 0 2.546875 0.40625q0.84375 0.40625 1.1719055 1.03125q0.34375 0.625 0.34375 2.28125l-0.015625 3.0q0 1.265625 0.109375 1.875q0.125 0.609375 0.46875 1.296875l-2.5312805 0q-0.109375 -0.25 -0.25 -0.75q-0.0625 -0.234375 -0.09375 -0.3125q-0.65625 0.640625 -1.40625 0.96875q-0.734375 0.3125 -1.59375 0.3125q-1.484375 0 -2.34375 -0.8125q-0.859375 -0.8125 -0.859375 -2.046875q0 -0.828125 0.390625 -1.46875q0.390625 -0.640625 1.09375 -0.96875q0.703125 -0.34375 2.03125 -0.609375q1.796875 -0.328125 2.484375 -0.625l0 -0.25q0 -0.75 -0.359375 -1.0625q-0.359375 -0.3125 -1.375 -0.3125q-0.6875 0 -1.078125 0.28125q-0.375 0.265625 -0.609375 0.9375zm3.421875 2.078125q-0.484375 0.15625 -1.5625 0.390625q-1.0625 0.21875 -1.390625 0.4375q-0.5 0.359375 -0.5 0.90625q0 0.53125 0.40625 0.9375q0.40625 0.390625 1.015625 0.390625q0.703125 0 1.328125 -0.46875q0.46875 -0.34375 0.609375 -0.84375q0.09375 -0.328125 0.09375 -1.25l0 -0.5zm5.047577 -6.34375l0 -2.375l2.5625 0l0 2.375l-2.5625 0zm0 10.984375l0 -9.671875l2.5625 0l0 9.671875l-2.5625 0zm5.1833496 0l0 -13.359375l2.5625 0l0 13.359375l-2.5625 0z" fill-rule="nonzero"/><path fill="#000000" fill-opacity="0.0" d="m280.10236 197.11285l57.165375 0l0 30.330719l-57.165375 0z" fill-rule="evenodd"/><path fill="#ff0000" d="m289.3211 214.36098l1.421875 0l0 -0.734375q0 -1.21875 0.25 -1.8125q0.265625 -0.609375 0.953125 -0.984375q0.703125 -0.375 1.78125 -0.375q1.09375 0 2.140625 0.328125l-0.359375 1.78125q-0.609375 -0.140625 -1.171875 -0.140625q-0.546875 0 -0.796875 0.265625q-0.234375 0.25 -0.234375 0.984375l0 0.6875l1.90625 0l0 2.015625l-1.90625 0l0 7.65625l-2.5625 0l0 -7.65625l-1.421875 0l0 -2.015625zm9.243927 2.953125l-2.328125 -0.421875q0.40625 -1.40625 1.359375 -2.078125q0.953125 -0.671875 2.84375 -0.671875q1.703125 0 2.546875 0.40625q0.84375 0.40625 1.171875 1.03125q0.34375 0.625 0.34375 2.28125l-0.015625 3.0q0 1.265625 0.109375 1.875q0.125 0.609375 0.46875 1.296875l-2.53125 0q-0.109375 -0.25 -0.25 -0.75q-0.0625 -0.234375 -0.09375 -0.3125q-0.65625 0.640625 -1.40625 0.96875q-0.734375 0.3125 -1.59375 0.3125q-1.484375 0 -2.34375 -0.8125q-0.859375 -0.8125 -0.859375 -2.046875q0 -0.828125 0.390625 -1.46875q0.390625 -0.640625 1.09375 -0.96875q0.703125 -0.34375 2.03125 -0.609375q1.796875 -0.328125 2.484375 -0.625l0 -0.25q0 -0.75 -0.359375 -1.0625q-0.359375 -0.3125 -1.375 -0.3125q-0.6875 0 -1.078125 0.28125q-0.375 0.265625 -0.609375 0.9375zm3.421875 2.078125q-0.484375 0.15625 -1.5625 0.390625q-1.0625 0.21875 -1.390625 0.4375q-0.5 0.359375 -0.5 0.90625q0 0.53125 0.40625 0.9375q0.40625 0.390625 1.015625 0.390625q0.703125 0 1.328125 -0.46875q0.46875 -0.34375 0.609375 -0.84375q0.09375 -0.328125 0.09375 -1.25l0 -0.5zm5.0476074 -6.34375l0 -2.375l2.5625 0l0 2.375l-2.5625 0zm0 10.984375l0 -9.671875l2.5625 0l0 9.671875l-2.5625 0zm5.1832886 0l0 -13.359375l2.5625 0l0 13.359375l-2.5625 0z" fill-rule="nonzero"/><path fill="#000000" fill-opacity="0.0" d="m56.102364 69.11286l57.16535 0l0 30.330711l-57.16535 0z" fill-rule="evenodd"/><path fill="#ff0000" d="m65.32111 86.360985l1.421875 0l0 -0.734375q0 -1.21875 0.25 -1.8125q0.265625 -0.609375 0.953125 -0.984375q0.703125 -0.375 1.78125 -0.375q1.09375 0 2.140625 0.328125l-0.359375 1.78125q-0.609375 -0.140625 -1.171875 -0.140625q-0.546875 0 -0.796875 0.265625q-0.234375 0.25 -0.234375 0.984375l0 0.6875l1.90625 0l0 2.015625l-1.90625 0l0 7.65625l-2.5625 0l0 -7.65625l-1.421875 0l0 -2.015625zm9.243927 2.953125l-2.328125 -0.421875q0.40625 -1.40625 1.359375 -2.078125q0.953125 -0.671875 2.84375 -0.671875q1.703125 0 2.546875 0.40625q0.84375 0.40625 1.171875 1.03125q0.34375 0.625 0.34375 2.28125l-0.015625 3.0q0 1.265625 0.109375 1.875q0.125 0.609375 0.46875 1.296875l-2.53125 0q-0.109375 -0.25 -0.25 -0.75q-0.0625 -0.234375 -0.09375 -0.3125q-0.65625 0.640625 -1.40625 0.96875q-0.734375 0.3125 -1.59375 0.3125q-1.484375 0 -2.34375 -0.8125q-0.859375 -0.8125 -0.859375 -2.046875q0 -0.828125 0.390625 -1.46875q0.390625 -0.640625 1.09375 -0.96875q0.703125 -0.34375 2.03125 -0.609375q1.796875 -0.328125 2.484375 -0.625l0 -0.25q0 -0.75 -0.359375 -1.0625q-0.359375 -0.3125 -1.375 -0.3125q-0.6875 0 -1.078125 0.28125q-0.375 0.265625 -0.609375 0.9375zm3.421875 2.078125q-0.484375 0.15625 -1.5625 0.390625q-1.0625 0.21875 -1.390625 0.4375q-0.5 0.359375 -0.5 0.90625q0 0.53125 0.40625 0.9375q0.40625 0.390625 1.015625 0.390625q0.703125 0 1.328125 -0.46875q0.46875 -0.34375 0.609375 -0.84375q0.09375 -0.328125 0.09375 -1.25l0 -0.5zm5.047592 -6.34375l0 -2.375l2.5625 0l0 2.375l-2.5625 0zm0 10.984375l0 -9.671875l2.5625 0l0 9.671875l-2.5625 0zm5.183304 0l0 -13.359375l2.5625 0l0 13.359375l-2.5625 0z" fill-rule="nonzero"/><path fill="#000000" fill-opacity="0.0" d="m8.102363 245.11285l57.16535 0l0 30.330719l-57.16535 0z" fill-rule="evenodd"/><path fill="#ff0000" d="m17.321112 262.361l1.421875 0l0 -0.734375q0 -1.21875 0.25 -1.8125q0.265625 -0.609375 0.953125 -0.984375q0.703125 -0.375 1.78125 -0.375q1.09375 0 2.140625 0.328125l-0.359375 1.78125q-0.609375 -0.140625 -1.171875 -0.140625q-0.546875 0 -0.796875 0.265625q-0.234375 0.25 -0.234375 0.984375l0 0.6875l1.90625 0l0 2.015625l-1.90625 0l0 7.65625l-2.5625 0l0 -7.65625l-1.421875 0l0 -2.015625zm9.243927 2.953125l-2.328125 -0.421875q0.40625 -1.40625 1.359375 -2.078125q0.953125 -0.671875 2.84375 -0.671875q1.703125 0 2.546875 0.40625q0.84375 0.40625 1.1718769 1.03125q0.34375 0.625 0.34375 2.28125l-0.015625 3.0q0 1.265625 0.109375 1.875q0.125 0.609375 0.46875 1.296875l-2.531252 0q-0.109375 -0.25 -0.25 -0.75q-0.0625 -0.234375 -0.09375 -0.3125q-0.65625 0.640625 -1.40625 0.96875q-0.734375 0.3125 -1.59375 0.3125q-1.484375 0 -2.34375 -0.8125q-0.859375 -0.8125 -0.859375 -2.046875q0 -0.828125 0.390625 -1.46875q0.390625 -0.640625 1.09375 -0.96875q0.703125 -0.34375 2.03125 -0.609375q1.796875 -0.328125 2.484375 -0.625l0 -0.25q0 -0.75 -0.359375 -1.0625q-0.359375 -0.3125 -1.375 -0.3125q-0.6875 0 -1.078125 0.28125q-0.375 0.265625 -0.609375 0.9375zm3.421875 2.078125q-0.484375 0.15625 -1.5625 0.390625q-1.0625 0.21875 -1.390625 0.4375q-0.5 0.359375 -0.5 0.90625q0 0.53125 0.40625 0.9375q0.40625 0.390625 1.015625 0.390625q0.703125 0 1.328125 -0.46875q0.46875 -0.34375 0.609375 -0.84375q0.09375 -0.328125 0.09375 -1.25l0 -0.5zm5.047594 -6.34375l0 -2.375l2.5625 0l0 2.375l-2.5625 0zm0 10.984375l0 -9.671875l2.5625 0l0 9.671875l-2.5625 0zm5.183304 0l0 -13.359375l2.5625 0l0 13.359375l-2.5625 0z" fill-rule="nonzero"/><path fill="#000000" fill-opacity="0.0" d="m235.1811 34.2021l57.16536 0l0 25.19685l-57.16536 0z" fill-rule="evenodd"/><path fill="#980000" d="m251.1186 58.043972l2.546875 0.421875q-0.484375 1.40625 -1.546875 2.140625q-1.0625 0.734375 -2.65625 0.734375q-2.515625 0 -3.734375 -1.65625q-0.953125 -1.3125 -0.953125 -3.328125q0 -2.40625 1.25 -3.765625q1.265625 -1.359375 3.1875 -1.359375q2.15625 0 3.40625 1.421875q1.25 1.421875 1.1875 4.375l-6.40625 0q0.03125 1.140625 0.609375 1.78125q0.59375 0.625 1.484375 0.625q0.59375 0 1.0 -0.328125q0.421875 -0.328125 0.625 -1.0625zm0.15625 -2.59375q-0.03125 -1.109375 -0.578125 -1.6875q-0.546875 -0.578125 -1.328125 -0.578125q-0.84375 0 -1.390625 0.609375q-0.546875 0.609375 -0.53125 1.65625l3.828125 0zm3.3913422 5.671875l3.484375 -4.984375l-3.34375 -4.6875l3.125 0l1.71875 2.65625l1.796875 -2.65625l3.015625 0l-3.28125 4.578125l3.578125 5.09375l-3.140625 0l-1.96875 -3.0l-1.984375 3.0l-3.0 0zm11.610077 -10.984375l0 -2.375l2.5625 0l0 2.375l-2.5625 0zm0 10.984375l0 -9.671875l2.5625 0l0 9.671875l-2.5625 0zm9.620819 -9.671875l0 2.03125l-1.75 0l0 3.90625q0 1.1875 0.046875 1.390625q0.046875 0.1875 0.21875 0.3125q0.1875 0.125 0.4375 0.125q0.359375 0 1.03125 -0.25l0.21875 2.0q-0.890625 0.375 -2.015625 0.375q-0.703125 0 -1.265625 -0.234375q-0.546875 -0.234375 -0.8125 -0.59375q-0.25 -0.375 -0.34375 -1.0q-0.09375 -0.453125 -0.09375 -1.8125l0 -4.21875l-1.171875 0l0 -2.03125l1.171875 0l0 -1.921875l2.578125 -1.5l0 3.421875l1.75 0z" fill-rule="nonzero"/><path fill="#000000" fill-opacity="0.0" d="m419.1811 130.2021l57.165375 0l0 25.196854l-57.165375 0z" fill-rule="evenodd"/><path fill="#980000" d="m435.1186 154.04398l2.546875 0.421875q-0.484375 1.40625 -1.546875 2.140625q-1.0625 0.734375 -2.65625 0.734375q-2.515625 0 -3.734375 -1.65625q-0.953125 -1.3125 -0.953125 -3.328125q0 -2.40625 1.25 -3.765625q1.265625 -1.359375 3.1875 -1.359375q2.15625 0 3.40625 1.421875q1.25 1.421875 1.1875 4.375l-6.40625 0q0.03125 1.140625 0.609375 1.78125q0.59375 0.625 1.484375 0.625q0.59375 0 1.0 -0.328125q0.421875 -0.328125 0.625 -1.0625zm0.15625 -2.59375q-0.03125 -1.109375 -0.578125 -1.6875q-0.546875 -0.578125 -1.328125 -0.578125q-0.84375 0 -1.390625 0.609375q-0.546875 0.609375 -0.53125 1.65625l3.828125 0zm3.3913574 5.671875l3.484375 -4.984375l-3.34375 -4.6875l3.125 0l1.71875 2.65625l1.796875 -2.65625l3.015625 0l-3.28125 4.578125l3.578125 5.09375l-3.140625 0l-1.96875 -3.0l-1.984375 3.0l-3.0 0zm11.610077 -10.984375l0 -2.375l2.5625 0l0 2.375l-2.5625 0zm0 10.984375l0 -9.671875l2.5625 0l0 9.671875l-2.5625 0zm9.620819 -9.671875l0 2.03125l-1.75 0l0 3.90625q0 1.1875 0.046875 1.390625q0.046875 0.1875 0.21875 0.3125q0.1875 0.125 0.4375 0.125q0.359375 0 1.03125 -0.25l0.21875 2.0q-0.890625 0.375 -2.015625 0.375q-0.703125 0 -1.265625 -0.234375q-0.546875 -0.234375 -0.8125 -0.59375q-0.25 -0.375 -0.34375 -1.0q-0.09375 -0.453125 -0.09375 -1.8125l0 -4.21875l-1.171875 0l0 -2.03125l1.171875 0l0 -1.921875l2.578125 -1.5l0 3.421875l1.75 0z" fill-rule="nonzero"/><path fill="#000000" fill-opacity="0.0" d="m619.1811 210.2021l57.165344 0l0 25.196854l-57.165344 0z" fill-rule="evenodd"/><path fill="#a61c00" d="m635.1186 234.04398l2.546875 0.421875q-0.484375 1.40625 -1.546875 2.140625q-1.0625 0.734375 -2.65625 0.734375q-2.515625 0 -3.734375 -1.65625q-0.953125 -1.3125 -0.953125 -3.328125q0 -2.40625 1.25 -3.765625q1.265625 -1.359375 3.1875 -1.359375q2.15625 0 3.40625 1.421875q1.25 1.421875 1.1875 4.375l-6.40625 0q0.03125 1.140625 0.609375 1.78125q0.59375 0.625 1.484375 0.625q0.59375 0 1.0 -0.328125q0.421875 -0.328125 0.625 -1.0625zm0.15625 -2.59375q-0.03125 -1.109375 -0.578125 -1.6875q-0.546875 -0.578125 -1.328125 -0.578125q-0.84375 0 -1.390625 0.609375q-0.546875 0.609375 -0.53125 1.65625l3.828125 0zm3.3913574 5.671875l3.484375 -4.984375l-3.34375 -4.6875l3.125 0l1.71875 2.65625l1.796875 -2.65625l3.015625 0l-3.28125 4.578125l3.578125 5.09375l-3.140625 0l-1.96875 -3.0l-1.984375 3.0l-3.0 0zm11.610107 -10.984375l0 -2.375l2.5625 0l0 2.375l-2.5625 0zm0 10.984375l0 -9.671875l2.5625 0l0 9.671875l-2.5625 0zm9.620789 -9.671875l0 2.03125l-1.75 0l0 3.90625q0 1.1875 0.046875 1.390625q0.046875 0.1875 0.21875 0.3125q0.1875 0.125 0.4375 0.125q0.359375 0 1.03125 -0.25l0.21875 2.0q-0.890625 0.375 -2.015625 0.375q-0.703125 0 -1.265625 -0.234375q-0.546875 -0.234375 -0.8125 -0.59375q-0.25 -0.375 -0.34375 -1.0q-0.09375 -0.453125 -0.09375 -1.8125l0 -4.21875l-1.171875 0l0 -2.03125l1.171875 0l0 -1.921875l2.578125 -1.5l0 3.421875l1.75 0z" fill-rule="nonzero"/><path fill="#000000" fill-opacity="0.0" d="m715.1811 26.202099l57.165344 0l0 25.19685l-57.165344 0z" fill-rule="evenodd"/><path fill="#a61c00" d="m731.1186 50.043972l2.546875 0.421875q-0.484375 1.40625 -1.546875 2.140625q-1.0625 0.734375 -2.65625 0.734375q-2.515625 0 -3.734375 -1.65625q-0.953125 -1.3125 -0.953125 -3.328125q0 -2.40625 1.25 -3.765625q1.265625 -1.359375 3.1875 -1.359375q2.15625 0 3.40625 1.421875q1.25 1.421875 1.1875 4.375l-6.40625 0q0.03125 1.140625 0.609375 1.78125q0.59375 0.625 1.484375 0.625q0.59375 0 1.0 -0.328125q0.421875 -0.328125 0.625 -1.0625zm0.15625 -2.59375q-0.03125 -1.109375 -0.578125 -1.6875q-0.546875 -0.578125 -1.328125 -0.578125q-0.84375 0 -1.390625 0.609375q-0.546875 0.609375 -0.53125 1.65625l3.828125 0zm3.3913574 5.671875l3.484375 -4.984375l-3.34375 -4.6875l3.125 0l1.71875 2.65625l1.796875 -2.65625l3.015625 0l-3.28125 4.578125l3.578125 5.09375l-3.140625 0l-1.96875 -3.0l-1.984375 3.0l-3.0 0zm11.610107 -10.984375l0 -2.375l2.5625 0l0 2.375l-2.5625 0zm0 10.984375l0 -9.671875l2.5625 0l0 9.671875l-2.5625 0zm9.620789 -9.671875l0 2.03125l-1.75 0l0 3.90625q0 1.1875 0.046875 1.390625q0.046875 0.1875 0.21875 0.3125q0.1875 0.125 0.4375 0.125q0.359375 0 1.03125 -0.25l0.21875 2.0q-0.890625 0.375 -2.015625 0.375q-0.703125 0 -1.265625 -0.234375q-0.546875 -0.234375 -0.8125 -0.59375q-0.25 -0.375 -0.34375 -1.0q-0.09375 -0.453125 -0.09375 -1.8125l0 -4.21875l-1.171875 0l0 -2.03125l1.171875 0l0 -1.921875l2.578125 -1.5l0 3.421875l1.75 0z" fill-rule="nonzero"/></g></svg>