<svg width="580" height="200" xmlns="http://www.w3.org/2000/svg"><style>rect { stroke: #000; stroke-width: 2; } rect.red,ellipse.red { fill: hsl(0,100%,80%); } rect.yellow,ellipse.yellow { fill: hsl(60,100%,80%); } rect.green,ellipse.green { fill: hsl(120,100%,80%); } rect.teal,ellipse.teal { fill: hsl(180,100%,80%); } rect.blue,ellipse.blue { fill: hsl(240,100%,80%); } rect.purple,ellipse.purple { fill: hsl(300,100%,80%); } .dot-red,.dot-green,.dot-blue { stroke-width:3; } .dot-red { stroke: hsl(0,100%,80%); fill: hsl(0,100%,95%); } .dot-green { stroke: hsl(120,100%,80%); fill: hsl(120,100%,95%); } .dot-blue { stroke: hsl(240,100%,80%); fill: hsl(240,100%,95%); } line { stroke-width: 2; stroke: #000; } text { text-anchor: middle; font-family: Helvetica, Arial, sans-serif; font-size: 22px; fill: #000; } ellipse { stroke-width: 2; stroke: #000; fill: #FFF } .black { fill: #000; } .white { fill: #fff; } path { stroke: #000; stroke-width: 2; } .order { font-size:18px; }</style><g transform="translate(40 60)"><text y="-37" x="20" class="order">Height 1</text><path class="dot-blue" d="M-30-30H70v60H-30z"/><ellipse ry="20" rx="20"/><text y="7">a</text><text y="7" x="45">h=0</text></g><g transform="translate(220 60)"><text y="-37" x="-5" class="order">Height 2</text><path class="dot-green" d="M-80-30H70V80H-80z"/><path d="M0 0l-50 50"/><ellipse ry="20" rx="20"/><text y="7">b</text><text y="7" x="45">h=1</text><g transform="translate(-50 50)"><ellipse ry="20" rx="20"/><text y="7">a</text><text y="7" x="45">h=0</text></g></g><g transform="translate(450 60)"><text y="-37" x="-5" class="order">Height 3</text><path class="dot-red" d="M-130-30h250v160h-250z"/><path d="M0 0l50 50"/><path d="M0 0l-50 50"/><ellipse ry="20" rx="20"/><text y="7">c</text><text y="7" x="45">h=2</text><g transform="translate(50 50)"><ellipse ry="20" rx="20"/><text y="7">d</text><text y="7" x="45">h=0</text></g><g transform="translate(-50 50)"><path d="M0 0l-50 50"/><ellipse ry="20" rx="20"/><text y="7">b</text><text y="7" x="45">h=1</text><ellipse ry="20" rx="20" cy="50" cx="-50"/><text y="57" x="-50">a</text><text y="57" x="-5">h=0</text></g></g></svg>