<?xml version="1.0" encoding="UTF-8" standalone="no"?>
<!DOCTYPE svg PUBLIC "-//W3C//DTD SVG 1.1//EN"
 "http://www.w3.org/Graphics/SVG/1.1/DTD/svg11.dtd">
<svg
   xmlns:svg="http://www.w3.org/2000/svg"
   xmlns="http://www.w3.org/2000/svg"
   version="1.1"
   width="700px"
   height="700px"
   viewBox="0 0 500 1300">
<!-- Vector Context Id 1 type vector display expanded x 0 y 0 width 3 height 11 group 1 min -5 max 5 -->
<path d="M100,100 l0,1100 M200,100 l0,1100 M300,100 l0,1100 M400,100 l0,1100 M100,100 l300,0 M100,200 l300,0 M100,300 l300,0 M100,400 l300,0 M100,500 l300,0 M100,600 l300,0 M100,700 l300,0 M100,800 l300,0 M100,900 l300,0 M100,1000 l300,0 M100,1100 l300,0 M100,1200 l300,0 " style="stroke-width:5;stroke:#000000;fill:none"/>
<text x="50.0" y="175.0" style="stroke:none;fill:#0000FF;font-family:Arial,sans-serif;font-size:50.0px;text-anchor:middle;">
-5
</text>
<text x="50.0" y="275.0" style="stroke:none;fill:#0000FF;font-family:Arial,sans-serif;font-size:50.0px;text-anchor:middle;">
-4
</text>
<text x="50.0" y="375.0" style="stroke:none;fill:#0000FF;font-family:Arial,sans-serif;font-size:50.0px;text-anchor:middle;">
-3
</text>
<text x="50.0" y="475.0" style="stroke:none;fill:#0000FF;font-family:Arial,sans-serif;font-size:50.0px;text-anchor:middle;">
-2
</text>
<text x="50.0" y="575.0" style="stroke:none;fill:#0000FF;font-family:Arial,sans-serif;font-size:50.0px;text-anchor:middle;">
-1
</text>
<text x="50.0" y="675.0" style="stroke:none;fill:#0000FF;font-family:Arial,sans-serif;font-size:50.0px;text-anchor:middle;">
0
</text>
<text x="50.0" y="775.0" style="stroke:none;fill:#0000FF;font-family:Arial,sans-serif;font-size:50.0px;text-anchor:middle;">
1
</text>
<text x="50.0" y="875.0" style="stroke:none;fill:#0000FF;font-family:Arial,sans-serif;font-size:50.0px;text-anchor:middle;">
2
</text>
<text x="50.0" y="975.0" style="stroke:none;fill:#0000FF;font-family:Arial,sans-serif;font-size:50.0px;text-anchor:middle;">
3
</text>
<text x="50.0" y="1075.0" style="stroke:none;fill:#0000FF;font-family:Arial,sans-serif;font-size:50.0px;text-anchor:middle;">
4
</text>
<text x="50.0" y="1175.0" style="stroke:none;fill:#0000FF;font-family:Arial,sans-serif;font-size:50.0px;text-anchor:middle;">
5
</text>
<text x="150.0" y="75.0" style="stroke:none;fill:#0000FF;font-family:Arial,sans-serif;font-size:50.0px;text-anchor:middle;">
1
</text>
<text x="250.0" y="75.0" style="stroke:none;fill:#0000FF;font-family:Arial,sans-serif;font-size:50.0px;text-anchor:middle;">
2
</text>
<text x="350.0" y="75.0" style="stroke:none;fill:#0000FF;font-family:Arial,sans-serif;font-size:50.0px;text-anchor:middle;">
3
</text>
<rect x="100.0" y="1000.0" width="100" height="100" style="stroke-width:5;stroke:#000000;fill:#FF0000;"/>
<rect x="200.0" y="100.0" width="100" height="100" style="stroke-width:5;stroke:#000000;fill:#FF0000;"/>
<rect x="300.0" y="700.0" width="100" height="100" style="stroke-width:5;stroke:#000000;fill:#FF0000;"/>
<rect x="300.0" y="100.0" width="100.0" height="1100.0" style="stroke-width:10.0;stroke:#FFFF00;fill:none;"/>
</svg>
